<svg width="423" height="73" viewBox="0 0 423 73" fill="none" xmlns="http://www.w3.org/2000/svg">
<g filter="url(#filter0_d)">
<path d="M4.728 23.896C4.728 21.1653 5.24 18.456 6.264 15.768C7.288 13.08 8.78133 10.648 10.744 8.472C12.7067 6.296 15.096 4.568 17.912 3.288C20.728 1.96533 23.928 1.304 27.512 1.304C31.736 1.304 35.4267 2.22133 38.584 4.056C41.7413 5.89067 44.088 8.28 45.624 11.224L37.56 16.856C36.8773 15.2773 35.96 14.04 34.808 13.144C33.656 12.2053 32.4187 11.5653 31.096 11.224C29.7733 10.84 28.4933 10.648 27.256 10.648C24.568 10.648 22.3493 11.3307 20.6 12.696C18.8507 14.0613 17.5493 15.7893 16.696 17.88C15.8427 19.9707 15.416 22.104 15.416 24.28C15.416 26.6693 15.9067 28.9307 16.888 31.064C17.8693 33.1547 19.256 34.84 21.048 36.12C22.84 37.4 24.952 38.04 27.384 38.04C28.664 38.04 29.9653 37.848 31.288 37.464C32.6107 37.0373 33.8267 36.3547 34.936 35.416C36.088 34.4773 36.9627 33.2613 37.56 31.768L46.136 36.824C45.24 39.0853 43.768 41.0053 41.72 42.584C39.672 44.12 37.3467 45.3147 34.744 46.168C32.184 46.9787 29.6453 47.384 27.128 47.384C23.8427 47.384 20.8347 46.7227 18.104 45.4C15.3733 44.0347 13.0053 42.2427 11 40.024C8.99467 37.7627 7.43733 35.2453 6.328 32.472C5.26133 29.656 4.728 26.7973 4.728 23.896ZM66.3325 47.64C62.4925 47.64 59.2285 46.8293 56.5405 45.208C53.8952 43.5867 51.8685 41.4533 50.4605 38.808C49.0525 36.1627 48.3485 33.304 48.3485 30.232C48.3485 27.1173 49.0525 24.2373 50.4605 21.592C51.8685 18.9467 53.9165 16.8133 56.6045 15.192C59.2925 13.5707 62.5352 12.76 66.3325 12.76C70.1298 12.76 73.3725 13.5707 76.0605 15.192C78.7485 16.8133 80.7965 18.9467 82.2045 21.592C83.6125 24.2373 84.3165 27.1173 84.3165 30.232C84.3165 33.304 83.6125 36.1627 82.2045 38.808C80.7965 41.4533 78.7485 43.5867 76.0605 45.208C73.3725 46.8293 70.1298 47.64 66.3325 47.64ZM58.8445 30.232C58.8445 32.8347 59.5485 34.9467 60.9565 36.568C62.4072 38.1893 64.1992 39 66.3325 39C68.4232 39 70.1725 38.1893 71.5805 36.568C73.0312 34.9467 73.7565 32.8347 73.7565 30.232C73.7565 27.6293 73.0312 25.5173 71.5805 23.896C70.1725 22.2747 68.4232 21.464 66.3325 21.464C64.1992 21.464 62.4072 22.2747 60.9565 23.896C59.5485 25.5173 58.8445 27.6293 58.8445 30.232ZM142.515 47H132.275V28.12C132.275 25.944 131.87 24.344 131.059 23.32C130.248 22.296 129.203 21.784 127.923 21.784C126.558 21.784 125.214 22.3387 123.891 23.448C122.568 24.5573 121.63 25.9867 121.075 27.736V47H110.835V28.12C110.835 25.9013 110.43 24.3013 109.619 23.32C108.808 22.296 107.763 21.784 106.483 21.784C105.118 21.784 103.774 22.3387 102.451 23.448C101.171 24.5573 100.232 25.9867 99.635 27.736V47H89.395V13.4H98.611V19.032C99.8483 17.0267 101.534 15.4907 103.667 14.424C105.8 13.3147 108.254 12.76 111.027 12.76C113.8 12.76 115.934 13.4213 117.427 14.744C118.92 16.024 119.88 17.5387 120.307 19.288C121.587 17.24 123.272 15.64 125.363 14.488C127.496 13.336 129.886 12.76 132.531 12.76C134.664 12.76 136.371 13.1653 137.651 13.976C138.974 14.744 139.976 15.768 140.659 17.048C141.384 18.328 141.875 19.7147 142.131 21.208C142.387 22.6587 142.515 24.088 142.515 25.496V47ZM170.456 47.64C167.938 47.64 165.72 47.1067 163.8 46.04C161.922 44.9307 160.472 43.4373 159.448 41.56V60.632H149.208V13.4H158.104V18.84C159.341 16.92 160.898 15.4267 162.776 14.36C164.653 13.2933 166.85 12.76 169.368 12.76C172.354 12.76 175.021 13.5493 177.368 15.128C179.757 16.664 181.613 18.7333 182.936 21.336C184.301 23.9387 184.984 26.8613 184.984 30.104C184.984 33.432 184.365 36.4187 183.128 39.064C181.89 41.7093 180.162 43.8 177.944 45.336C175.768 46.872 173.272 47.64 170.456 47.64ZM167 39C168.45 39 169.752 38.5947 170.904 37.784C172.056 36.9307 172.952 35.8427 173.592 34.52C174.232 33.1547 174.552 31.6613 174.552 30.04C174.552 27.5653 173.784 25.5173 172.248 23.896C170.754 22.2747 168.834 21.464 166.488 21.464C165.08 21.464 163.714 21.8907 162.392 22.744C161.112 23.5547 160.13 24.664 159.448 26.072V32.984C160.13 34.6907 161.154 36.12 162.52 37.272C163.928 38.424 165.421 39 167 39ZM190.017 0.279999H200.257V35.032C200.257 36.44 200.513 37.4427 201.025 38.04C201.537 38.6373 202.262 38.936 203.201 38.936C203.841 38.936 204.481 38.8507 205.121 38.68C205.804 38.4667 206.401 38.232 206.913 37.976L208.257 45.656C206.977 46.2533 205.505 46.7227 203.841 47.064C202.177 47.4053 200.62 47.576 199.169 47.576C196.268 47.576 194.006 46.808 192.385 45.272C190.806 43.736 190.017 41.5173 190.017 38.616V0.279999ZM211.583 9.56V0.279999H221.823V9.56H211.583ZM211.583 47V13.4H221.823V47H211.583ZM281.953 47H271.713V28.12C271.713 25.944 271.307 24.344 270.497 23.32C269.686 22.296 268.641 21.784 267.361 21.784C265.995 21.784 264.651 22.3387 263.329 23.448C262.006 24.5573 261.067 25.9867 260.513 27.736V47H250.273V28.12C250.273 25.9013 249.867 24.3013 249.057 23.32C248.246 22.296 247.201 21.784 245.921 21.784C244.555 21.784 243.211 22.3387 241.889 23.448C240.609 24.5573 239.67 25.9867 239.073 27.736V47H228.833V13.4H238.049V19.032C239.286 17.0267 240.971 15.4907 243.105 14.424C245.238 13.3147 247.691 12.76 250.465 12.76C253.238 12.76 255.371 13.4213 256.865 14.744C258.358 16.024 259.318 17.5387 259.745 19.288C261.025 17.24 262.71 15.64 264.801 14.488C266.934 13.336 269.323 12.76 271.969 12.76C274.102 12.76 275.809 13.1653 277.089 13.976C278.411 14.744 279.414 15.768 280.097 17.048C280.822 18.328 281.313 19.7147 281.569 21.208C281.825 22.6587 281.953 24.088 281.953 25.496V47ZM304.709 47.64C300.912 47.64 297.669 46.8507 294.981 45.272C292.293 43.6933 290.224 41.6027 288.773 39C287.365 36.3973 286.661 33.5813 286.661 30.552C286.661 27.3093 287.365 24.344 288.773 21.656C290.181 18.968 292.229 16.8133 294.917 15.192C297.605 13.5707 300.869 12.76 304.709 12.76C308.506 12.76 311.749 13.5707 314.437 15.192C317.125 16.8133 319.152 18.9467 320.517 21.592C321.925 24.2373 322.629 27.0747 322.629 30.104C322.629 31.3413 322.544 32.4293 322.373 33.368H297.541C297.712 35.6293 298.522 37.3573 299.973 38.552C301.466 39.704 303.152 40.28 305.029 40.28C306.522 40.28 307.952 39.9173 309.317 39.192C310.682 38.4667 311.621 37.4853 312.133 36.248L320.837 38.68C319.514 41.3253 317.445 43.48 314.629 45.144C311.856 46.808 308.549 47.64 304.709 47.64ZM297.285 27.096H311.877C311.664 24.9627 310.874 23.2773 309.509 22.04C308.186 20.76 306.544 20.12 304.581 20.12C302.618 20.12 300.954 20.76 299.589 22.04C298.266 23.32 297.498 25.0053 297.285 27.096ZM359.654 47H349.414V28.12C349.414 25.9013 348.987 24.3013 348.134 23.32C347.323 22.296 346.235 21.784 344.87 21.784C343.462 21.784 342.033 22.3387 340.582 23.448C339.131 24.5573 338.107 25.9867 337.51 27.736V47H327.27V13.4H336.486V19.032C337.723 17.0693 339.473 15.5333 341.734 14.424C343.995 13.3147 346.598 12.76 349.542 12.76C351.718 12.76 353.467 13.1653 354.79 13.976C356.155 14.744 357.179 15.768 357.862 17.048C358.587 18.2853 359.057 19.6507 359.27 21.144C359.526 22.6373 359.654 24.088 359.654 25.496V47ZM388.155 45.208C386.747 45.8053 385.126 46.36 383.291 46.872C381.499 47.384 379.686 47.64 377.851 47.64C376.144 47.64 374.587 47.3627 373.179 46.808C371.771 46.2107 370.64 45.2507 369.787 43.928C368.934 42.6053 368.507 40.856 368.507 38.68V21.144H364.219V13.4H368.507V2.712H378.747V13.4H385.595V21.144H378.747V35.16C378.747 36.2693 379.024 37.08 379.579 37.592C380.134 38.0613 380.838 38.296 381.691 38.296C382.459 38.296 383.248 38.168 384.059 37.912C384.87 37.656 385.574 37.3787 386.171 37.08L388.155 45.208ZM405.009 47.64C402.108 47.64 399.292 47.1707 396.561 46.232C393.873 45.2507 391.59 43.864 389.713 42.072L393.233 35.608C397.372 38.6373 401.19 40.152 404.689 40.152C406.012 40.152 407.036 39.9387 407.761 39.512C408.486 39.0853 408.849 38.424 408.849 37.528C408.849 36.5893 408.358 35.928 407.377 35.544C406.396 35.1173 404.945 34.6267 403.025 34.072C400.465 33.2187 398.332 32.3867 396.625 31.576C394.918 30.7653 393.638 29.784 392.785 28.632C391.932 27.48 391.505 25.944 391.505 24.024C391.505 20.6533 392.764 17.944 395.281 15.896C397.798 13.8053 401.212 12.76 405.521 12.76C407.825 12.76 410.065 13.1227 412.241 13.848C414.46 14.5733 416.529 15.7893 418.449 17.496L414.481 23.896C412.561 22.5733 410.854 21.6133 409.361 21.016C407.868 20.4187 406.417 20.12 405.009 20.12C403.9 20.12 402.961 20.3333 402.193 20.76C401.425 21.144 401.041 21.8267 401.041 22.808C401.041 23.7467 401.468 24.4507 402.321 24.92C403.174 25.3467 404.497 25.816 406.289 26.328C409.02 27.1387 411.302 27.9707 413.137 28.824C415.014 29.6347 416.401 30.6587 417.297 31.896C418.236 33.0907 418.705 34.6907 418.705 36.696C418.705 40.1093 417.468 42.7973 414.993 44.76C412.518 46.68 409.19 47.64 405.009 47.64Z" fill="#F4F4F4"/>
</g>
<defs>
<filter id="filter0_d" x="0.728027" y="0.280029" width="421.977" height="72.352" filterUnits="userSpaceOnUse" color-interpolation-filters="sRGB">
<feFlood flood-opacity="0" result="BackgroundImageFix"/>
<feColorMatrix in="SourceAlpha" type="matrix" values="0 0 0 0 0 0 0 0 0 0 0 0 0 0 0 0 0 0 127 0"/>
<feOffset dy="8"/>
<feGaussianBlur stdDeviation="2"/>
<feColorMatrix type="matrix" values="0 0 0 0 0.341176 0 0 0 0 0.8 0 0 0 0 0.6 0 0 0 0.44 0"/>
<feBlend mode="normal" in2="BackgroundImageFix" result="effect1_dropShadow"/>
<feBlend mode="normal" in="SourceGraphic" in2="effect1_dropShadow" result="shape"/>
</filter>
</defs>
</svg>
