<svg width="561" height="575" viewBox="0 0 561 575" fill="none" xmlns="http://www.w3.org/2000/svg">
<g clip-path="url(#clip0)">
<path opacity="0.4" d="M430.158 570.339C452.205 562.413 465.744 547.154 460.398 536.256C455.052 525.358 432.845 522.949 410.799 530.875C388.752 538.801 375.213 554.061 380.559 564.958C385.905 575.856 408.111 578.265 430.158 570.339Z" fill="#D6D8E5"/>
<path opacity="0.4" d="M528.449 316.133C551.351 307.9 565.373 291.964 559.768 280.539C554.164 269.114 531.055 266.527 508.153 274.76C485.251 282.994 471.229 298.93 476.833 310.355C482.438 321.779 505.547 324.367 528.449 316.133Z" fill="#D6D8E5"/>
<path opacity="0.4" d="M467.719 306.352C472.861 294.769 458.207 279.255 434.988 271.7C411.769 264.146 388.778 267.411 383.636 278.994C378.493 290.577 393.147 306.091 416.366 313.646C439.585 321.2 462.576 317.935 467.719 306.352Z" fill="#D6D8E5"/>
<path opacity="0.4" d="M535.581 255.9C540.723 244.317 526.069 228.804 502.85 221.249C479.631 213.695 456.64 216.96 451.498 228.543C446.355 240.126 461.009 255.64 484.228 263.195C507.447 270.749 530.438 267.483 535.581 255.9Z" fill="#D6D8E5"/>
<path opacity="0.4" d="M374.181 538.383C396.228 530.457 409.766 515.198 404.42 504.3C399.074 493.402 376.868 490.993 354.821 498.919C332.774 506.845 319.236 522.104 324.582 533.002C329.928 543.9 352.134 546.309 374.181 538.383Z" fill="#D6D8E5"/>
<path opacity="0.4" d="M257.658 531.852C261.134 520.413 239.021 505.589 208.268 498.741C177.515 491.893 149.767 495.615 146.291 507.054C142.816 518.493 164.928 533.318 195.681 540.166C226.434 547.013 254.182 543.291 257.658 531.852Z" fill="#D6D8E5"/>
<path opacity="0.4" d="M323.388 274.15C326.864 262.71 301.352 247.129 266.405 239.348C231.459 231.566 200.312 234.531 196.836 245.97C193.361 257.41 218.873 272.991 253.819 280.772C288.765 288.554 319.912 285.589 323.388 274.15Z" fill="#D6D8E5"/>
<path opacity="0.4" d="M104.671 380.742C126.718 372.816 140.256 357.556 134.91 346.658C129.564 335.761 107.358 333.351 85.3112 341.277C63.2644 349.203 49.7258 364.463 55.0718 375.361C60.4178 386.258 82.624 388.668 104.671 380.742Z" fill="#D6D8E5"/>
<path opacity="0.4" d="M45.6873 350.067C64.8953 343.162 76.6915 329.869 72.035 320.377C67.3784 310.884 48.0323 308.787 28.8243 315.693C9.61633 322.598 -2.17994 335.891 2.47663 345.383C7.13321 354.876 26.4793 356.973 45.6873 350.067Z" fill="#D6D8E5"/>
<path d="M37.0363 105.662C35.0482 102.936 19.8816 101.2 14.8978 112.136C13.0036 116.311 13.2992 126.971 11.714 133.676C10.1289 140.38 6.34058 144.164 4.99722 149.603C3.65386 155.043 5.84354 164.151 21.1175 165.703C36.3915 167.256 48.1862 162.713 51.7998 158.539C55.4135 154.364 55.4806 145.486 51.7327 140.725C47.9847 135.964 45.1233 132.077 45.2174 125.867L37.0363 105.662Z" fill="#3A2C6D"/>
<path d="M55.212 151.708C55.212 151.708 58.8122 173.42 52.0149 188.841C45.2175 204.263 47.0982 184.874 47.0982 184.874L48.7371 180.274C48.7371 180.274 50.0804 162.518 49.5431 158.171C49.0057 153.824 49.0998 150.121 48.7371 149.73C48.3744 149.339 50.0804 148.683 50.8058 148.58C51.5312 148.476 55.212 151.708 55.212 151.708Z" fill="#FFCEA9"/>
<path d="M27.0283 103.764C27.0283 103.764 38.4469 100.947 45.3652 106.237C47.6566 108.04 49.3248 110.347 50.1872 112.907C51.0496 115.466 51.0731 118.18 50.255 120.75C49.3281 123.843 47.4877 128.052 44.6129 128.294C41.7381 128.535 27.0283 103.764 27.0283 103.764Z" fill="#3A2C6D"/>
<path d="M22.6624 130.433C22.6624 130.433 23.4147 141.323 23.1729 142.128C22.9311 142.933 18.1756 143.704 16.8457 144.658C15.5158 145.613 23.764 156.653 27.9687 158.297C32.1734 159.942 45.1637 155.744 46.0638 150.247C46.8966 145.153 42.3426 141.185 40.5963 139.805C39.4041 139.71 38.2059 139.683 37.0095 139.725L36.6199 134.446C30.8972 132.859 22.6624 130.433 22.6624 130.433Z" fill="#FFCEA9"/>
<path d="M49.5431 167.175C49.5431 169.475 49.2072 172.994 48.952 175.524C48.8177 176.916 48.6968 178.031 48.643 178.491C48.6537 178.564 48.6537 178.637 48.643 178.71C36.1632 185.334 20.7146 179.653 20.7146 179.653C20.2041 178.79 19.6668 177.824 19.1026 176.709C17.6517 173.903 15.9591 170.177 13.7291 165.209C10.6125 158.136 12.0902 148.925 12.6813 146.97C13.2455 145.291 17.3428 143.658 20.9161 143.186C25.0671 145.164 27.6329 150.155 40.5963 153.536C46.6414 148.522 37.9096 139.736 37.9096 139.736C39.0809 139.656 40.2579 139.656 41.4292 139.736C51.2223 147.97 61.0422 158.562 49.5431 167.175Z" fill="#F4F4F4"/>
<path d="M46.4399 116.932C45.0965 109.928 39.2395 104.638 30.8166 105.064C28.6831 105.17 26.5949 105.634 24.6715 106.432C22.748 107.229 21.0271 108.343 19.6072 109.71C18.1873 111.077 17.0962 112.671 16.3965 114.399C15.6967 116.128 15.402 117.958 15.5292 119.784C15.6777 121.91 16.399 123.977 17.6365 125.825C18.874 127.672 20.5942 129.249 22.6624 130.433C22.974 131.493 23.4247 132.519 24.0058 133.492C27.0015 136.47 34.9407 138.356 37.5603 138.391C39.8171 138.391 41.7784 136.597 43.9009 133.595C48.2534 127.328 47.1384 120.382 46.4399 116.932Z" fill="#FFCEA9"/>
<path d="M28.2105 105.19C22.2997 106.179 17.4636 107.605 15.8247 112.585C14.7232 116.035 13.2858 122.532 14.656 125.235L15.5023 127.224L22.6758 130.387C22.6758 130.387 26.0208 127.995 24.973 121.014C25.0139 120.066 25.3628 119.146 25.9805 118.358C26.4263 117.7 26.761 116.992 26.9746 116.253C27.8183 114.364 29.4774 112.824 31.6092 111.952C36.9826 109.388 44.7607 111.596 45.8488 112.527C44.3371 109.759 41.7597 107.519 38.5485 106.183C35.3374 104.847 31.6875 104.497 28.2105 105.19Z" fill="#3A2C6D"/>
<path d="M12.2783 194.097C10.9349 187.001 8.46313 182.401 9.59155 178.503C12.1552 170.598 15.5266 162.902 19.6667 155.503C22.2863 151.087 21.4803 148.016 18.7667 146.303C15.7173 144.348 12.8022 145.153 10.0617 150.086C6.63616 156.227 2.68669 162.541 0.846286 171.695C-0.0806312 176.134 -0.497072 180.446 1.10152 189.566C2.27025 195.948 4.64799 199.525 7.44218 205.516C8.20789 207.149 13.4336 200.1 12.2783 194.097Z" fill="#FFCEA9"/>
<path d="M17.4636 326.393C20.4593 328.486 25.1208 327.037 25.3357 327.232C28.3852 329.843 32.9257 332.12 36.311 334.397C38.1782 335.662 41.0799 337.341 40.556 339.756C39.6156 344.068 31.542 342.746 28.4658 341.423C25.3895 340.101 22.9311 337.916 20.0429 336.375C17.9876 335.282 16.0128 334.719 15.6501 332.499C15.462 331.2 16.9263 326.347 17.4636 326.393Z" fill="#38226D"/>
<path d="M15.7039 331.602C16.0935 333.73 18.0951 334.316 20.137 335.397C23.0655 336.961 25.6448 339.204 28.6942 340.526C31.5018 341.745 38.5276 342.953 40.5023 339.871C39.4276 344.034 31.4884 342.734 28.4792 341.423C25.4701 340.112 22.9446 337.916 20.0564 336.375C18.001 335.282 16.0263 334.719 15.6636 332.499C15.6327 332.2 15.6462 331.899 15.7039 331.602Z" fill="#9C73FF"/>
<path d="M38.4604 322.805C41.1471 324.714 45.3384 323.644 45.5399 323.817C48.334 326.209 52.4716 328.267 55.5613 330.36C57.2674 331.51 59.9407 333.051 59.457 335.259C58.5973 339.215 51.1954 337.996 48.4012 336.789C45.607 335.581 43.3367 333.569 40.6903 332.189C38.8096 331.188 36.9558 330.671 36.6603 328.635C36.4856 327.382 37.9633 322.759 38.4604 322.805Z" fill="#38226D"/>
<path d="M36.7005 327.75C37.0632 329.705 38.8902 330.245 40.7306 331.2C43.4173 332.626 45.7816 334.65 48.5758 335.892C51.1416 337.042 57.5763 338.123 59.3227 335.305C58.342 339.112 51.0744 337.916 48.3071 336.72C45.5398 335.524 43.2427 333.5 40.5962 332.12C38.7155 331.119 36.8617 330.602 36.5662 328.566C36.5809 328.291 36.6259 328.018 36.7005 327.75Z" fill="#9C73FF"/>
<path d="M54.5941 203.55C53.2507 194.718 49.4759 181.884 49.4759 181.884C45.877 183.325 41.9852 184.153 38.017 184.322C31.3003 184.609 20.6877 182.873 20.6877 182.873C18.826 185.649 16.7901 188.336 14.5889 190.923C11.62 194.465 5.83017 202.216 7.22727 215.751C8.14075 224.595 13.9441 262.165 13.9441 262.165C11.6819 268.517 10.479 275.11 10.3707 281.75C10.3707 287.212 12.1171 296.504 13.9978 305.095L17.4637 326.393C17.4637 326.393 22.0579 329.233 25.3357 327.232L24.9327 306.36C25.3223 301.254 25.9134 293.71 26.2761 288.903C26.894 281.071 28.5329 268.617 28.9628 265.512C29.3927 262.407 30.6017 256.979 31.1525 250.884C31.7033 244.789 34.4437 213.9 34.4437 213.9L34.8064 219.65C34.8064 219.65 35.1691 229.045 36.7409 240.649C38.3126 252.252 38.8768 257.393 38.8768 257.393C37.3852 259.735 36.3421 262.266 35.7871 264.891C35.505 267.398 32.16 287.235 34.1616 297.321L38.2723 322.977C39.2969 323.581 40.4741 323.967 41.7072 324.105C42.9402 324.243 44.1939 324.128 45.3652 323.771L47.7833 297.919C49.3953 288.075 52.8343 267.225 53.3582 264.569C54.0433 261.004 54.621 259.244 55.4135 248.032C56.2061 236.819 55.9106 212.416 54.5941 203.55Z" fill="#FFCEA9"/>
<path d="M4.72864 158.7C4.72864 158.7 10.9081 163.955 18.2294 163.3L21.7356 153.053C21.7356 153.053 24.0327 147.694 18.6861 145.348C13.3396 143.002 7.7915 148.154 4.72864 158.7Z" fill="#EDEDED"/>
<path d="M41.4561 139.725C41.4561 139.725 48.5221 137.885 56.0181 151.282L53.2104 152.731C53.2104 152.731 45.8354 143.175 41.4561 139.725Z" fill="#EDEDED"/>
<path d="M133.852 185.437C134.39 189.428 139.938 206.632 138.742 212.52C137.547 218.408 118.592 228.275 118.592 228.275L115.905 218.189L126.41 209.369L123.589 192.659L133.852 185.437Z" fill="#FFCEA9"/>
<path d="M135.679 191.084C135.293 191.494 134.87 191.878 134.417 192.234V192.291C133.095 193.387 131.495 194.205 129.742 194.683C128.53 194.987 127.255 195.058 126.007 194.89L125.161 191.613L119.277 168.429C121.121 167.695 123.216 167.568 125.163 168.07C127.109 168.573 128.773 169.67 129.836 171.154C131.407 173.362 132.993 178.549 134.134 183.126C134.94 186.817 135.572 190.049 135.679 191.084Z" fill="#434B5B"/>
<path d="M97.4741 360.318C93.34 361.291 88.9247 360.832 85.1823 359.041C82.227 359.122 66.1604 353.291 63.9707 358.179C62.0631 362.503 69.0217 366.516 72.7428 367.287C80.803 368.966 86.8615 372.439 90.1125 373.037C92.544 373.474 95.6874 373.761 97.6218 372.128C99.9459 370.15 99.7444 362.894 97.4741 360.318Z" fill="#C1C4D3"/>
<path d="M90.1126 371.818C86.8616 371.231 80.8568 367.77 72.7429 366.068C69.6263 365.412 64.2529 362.503 63.7155 359.018C62.9901 363.009 69.2636 366.539 72.7429 367.264C80.8031 368.943 86.8616 372.416 90.1126 373.014C92.544 373.451 95.6875 373.738 97.6219 372.105C98.1304 371.631 98.4989 371.059 98.6966 370.438C97.49 371.224 96.0857 371.758 94.5954 371.998C93.1051 372.237 91.5701 372.176 90.1126 371.818Z" fill="#A7ABB7"/>
<path d="M123.589 350.301C119.455 351.274 115.04 350.816 111.297 349.025C108.342 349.105 92.2753 343.217 90.0856 348.151C88.178 352.486 95.1366 356.5 98.8577 357.27C106.918 358.949 112.976 362.422 116.227 363.02C118.659 363.457 121.802 363.745 123.737 362.112C126.007 360.134 125.805 352.877 123.589 350.301Z" fill="#C1C4D3"/>
<path d="M116.174 361.801C112.923 361.215 106.918 357.753 98.804 356.051C95.6874 355.396 90.314 352.475 89.7766 349.002C89.0512 353.05 95.3784 356.5 98.804 357.27C106.864 358.949 112.923 362.422 116.174 363.02C118.605 363.457 121.749 363.745 123.683 362.112C124.189 361.636 124.557 361.065 124.758 360.444C123.549 361.227 122.143 361.757 120.653 361.992C119.163 362.228 117.629 362.163 116.174 361.801Z" fill="#A7ABB7"/>
<path d="M123.858 312.926C123.167 307.814 121.926 302.767 120.15 297.85C120.15 297.85 121.252 284.843 121.802 272.55C122.434 258.554 128.103 246.238 123.629 235.083L73.213 244.674C73.213 244.674 76.2624 300.437 76.9341 307.188C77.3349 312.441 78.1111 317.668 79.2581 322.839C81.5553 333.672 85.2898 359.421 85.2898 359.421C90.6632 362.077 97.6218 360.571 97.6218 360.571C97.6218 360.571 97.2457 328.003 96.8964 320.206C96.48 310.684 96.1441 311.408 96.1441 311.408L97.8099 287.684L98.898 275.885C98.898 275.885 100.241 284.544 101.195 292.284C101.988 299.023 103.882 305.129 106.018 317.687C107.858 328.578 110.854 350.474 110.854 350.474C116.227 353.119 123.428 350.922 123.428 350.922C123.428 350.922 125.295 322.379 123.858 312.926Z" fill="#916F5D"/>
<path d="M116.496 168.716C112.654 168.877 109.779 169.717 109.309 168.716C108.895 167.02 108.603 165.303 108.436 163.576C108.879 162.633 109.255 161.598 109.255 161.598C114.078 159.068 115.609 154.606 116.241 149.408C117.316 140.53 111.714 132.756 101.343 131.824C91.5902 130.962 84.4166 136.827 82.5359 144.877C81.5016 148.856 79.4462 156.377 82.227 162.909C83.7718 166.566 85.7734 169.475 87.775 170.039C89.7047 169.995 91.6295 169.85 93.538 169.602C93.538 169.602 94.0485 172.063 94.4112 173.65C94.7739 175.237 94.6262 176.065 90.9454 178.008C87.2646 179.952 96.5069 183.942 102.552 183.551C108.597 183.16 115.394 180.032 117.329 176.651C119.304 173.006 119.129 168.601 116.496 168.716Z" fill="#FFCEA9"/>
<path d="M135.679 191.084C135.292 191.494 134.87 191.878 134.416 192.234V192.291C133.02 193.301 131.441 194.109 129.742 194.683C128.694 195.034 127.596 195.262 126.477 195.362L122.971 192.682C123.727 192.367 124.459 192.01 125.161 191.613C127.515 190.275 129.602 188.621 131.34 186.714C132.409 185.601 133.345 184.399 134.134 183.126C134.94 186.817 135.572 190.049 135.679 191.084Z" fill="#D5D7E2"/>
<path d="M124.207 213.9C121.775 221.294 123.535 223.387 123.656 236.221C119.425 242.293 102.001 250.125 91.6573 250.861C81.3135 251.597 73.2264 244.674 73.2264 244.674C72.6354 240.925 72.7025 219.201 73.3742 204.562C73.9653 191.912 75.8729 184.414 80.2119 181.826C82.5847 180.554 85.0428 179.402 87.5735 178.376C90.7976 177.008 93.8067 175.835 94.1828 175.685C94.1799 175.708 94.1799 175.732 94.1828 175.754C94.3575 176.134 95.5262 177.985 102.015 176.237C109.134 174.328 111.848 171.58 110.894 169.337C110.9 169.311 110.9 169.284 110.894 169.257C111.23 169.257 113.809 168.889 116.751 168.682C117.907 168.59 119.129 168.532 120.271 168.498C124.57 168.406 127.673 169.556 129.903 178.848C132.683 190.026 129.755 196.96 124.207 213.9Z" fill="#434B5B"/>
<path d="M57.1062 216.66C65.5962 218.488 67.5978 213.911 68.7128 210.116C71.3995 200.916 72.8772 192.613 74.8922 187.404C77.2565 181.24 79.7418 180.262 83.2345 179.066C87.3452 177.663 90.8648 180.63 89.508 188.462C87.8825 197.719 85.7734 204.228 81.7165 215.188C80.6687 218.051 78.2909 223.146 74.7445 225.538C70.3651 228.574 63.7558 228.447 53.7746 226.32C49.5162 225.411 44.8413 223.226 36.7811 220.018C34.6183 219.155 32.9391 218.58 28.7882 216.924C24.6208 215.324 20.9698 212.881 18.1488 209.806C15.9591 207.103 15.677 205.838 16.1203 205.206C16.5636 204.573 17.6652 204.608 18.807 205.735C20.4844 207.653 22.5556 209.293 24.9193 210.576C24.9193 210.576 22.2326 208.207 20.7817 206.666C19.4831 205.296 18.4034 203.784 17.5711 202.17C16.8054 200.594 18.3906 198.467 19.5862 199.582C20.7817 200.698 21.3728 201.882 23.6162 204.102C24.7755 205.301 26.0967 206.378 27.5523 207.31C26.1919 205.731 24.9791 204.062 23.9252 202.319C22.974 200.961 22.5071 199.394 22.5818 197.811C22.5818 196.983 23.9924 196.006 25.2686 197.57C26.4104 198.961 27.1627 201.158 29.8225 203.527C31.7704 205.252 33.4227 206.241 33.463 205.769C33.5033 205.298 32.2943 204.343 31.5958 202.319C30.8972 200.295 31.5958 198.191 32.9391 197.949C34.2825 197.708 33.987 197.788 35.0213 199.663C36.0557 201.537 37.7081 202.929 38.8768 205.666C39.5381 207.599 40.7365 209.367 42.3695 210.818C44.4114 212.819 49.0326 214.923 57.1062 216.66Z" fill="#FFCEA9"/>
<path d="M82.8314 143.75C82.8314 143.75 73.8847 132.077 93.2962 129.697C107.294 127.983 116.295 135.688 117.342 144.049C118.336 152.03 112.587 160.321 108.436 163.599C106.421 164.22 102.055 164.576 96.3456 162.357C96.1151 160.182 96.0254 157.997 96.077 155.813C96.077 155.813 102.888 143.531 82.8314 143.75Z" fill="#3A4151"/>
<path d="M522.177 236.808C518.563 239.338 513.23 237.026 512.961 237.256C508.712 240.632 504.254 243.81 499.608 246.778C497.352 248.296 493.845 250.32 494.477 253.241C495.619 258.462 505.371 256.852 509.052 255.254C512.733 253.655 515.769 251.022 519.222 249.17C521.707 247.848 524.152 247.158 524.595 244.478C524.77 242.857 522.822 236.75 522.177 236.808Z" fill="#2B303F"/>
<path d="M524.487 243.386C524.017 245.962 521.599 246.675 519.114 247.986C515.568 249.86 512.397 252.586 508.77 254.173C505.371 255.645 496.895 257.117 494.504 253.391C495.847 258.416 505.385 256.841 509.025 255.254C512.666 253.667 515.742 251.022 519.195 249.17C521.68 247.848 524.125 247.158 524.568 244.478C524.591 244.113 524.564 243.746 524.487 243.386Z" fill="#3A4151"/>
<path d="M490.796 226.826C487.182 229.344 480.842 226.596 480.573 226.826C476.812 230.087 472.833 233.158 468.657 236.026C466.401 237.544 462.881 239.579 463.526 242.489C464.654 247.71 474.421 246.111 478.101 244.513C481.782 242.914 484.818 240.269 488.271 238.418C490.756 237.095 493.201 236.417 493.577 233.726C493.819 232.116 491.427 226.757 490.796 226.826Z" fill="#2B303F"/>
<path d="M493.469 233.024C492.999 235.6 490.581 236.302 488.096 237.624C484.549 239.51 481.379 242.224 477.752 243.823C474.353 245.295 465.877 246.755 463.486 243.029C464.829 248.066 474.367 246.479 478.007 244.904C481.648 243.328 484.724 240.66 488.177 238.809C490.662 237.486 493.107 236.808 493.55 234.117C493.574 233.751 493.547 233.385 493.469 233.024Z" fill="#3A4151"/>
<path d="M466.629 55.7979C466.629 55.7979 466.736 60.8464 466.024 73.3354C465.772 82.6757 466.261 92.0199 467.489 101.303C468.566 108.648 470.901 115.817 474.42 122.578C477.013 111.895 474.004 110.02 474.004 110.02L475.482 87.3194C475.482 87.3194 474.004 65.4004 474.595 57.6149C474.958 52.6699 466.629 55.7979 466.629 55.7979Z" fill="#FFCEA9"/>
<path d="M522.298 122.475C522.123 127.155 520.417 147.487 519.611 158.263C518.805 169.038 518.671 182.217 518.671 182.217C518.671 182.217 520.847 190.049 522.244 199.272C523.641 208.495 522.244 237.578 522.244 237.578C520.864 238.338 519.257 238.742 517.616 238.742C515.975 238.742 514.369 238.338 512.988 237.578C512.988 237.578 507.198 214.291 504.512 203.803C501.825 193.315 501.368 187.277 499.971 180.803C498.292 172.937 494.598 136.24 494.598 136.24L493.147 136.309L489.278 177.709C490.473 180.764 491.293 183.917 491.723 187.116C492.771 193.867 490.608 227.826 490.608 227.826C489.063 228.561 487.311 228.916 485.545 228.853C483.78 228.791 482.068 228.312 480.6 227.47C480.6 227.47 470.928 182.505 470.928 175.651C470.928 171.131 471.828 111.446 471.828 111.446L522.298 122.475Z" fill="#8C50FF"/>
<path d="M502.846 59.248C500.844 60.03 497.002 59.616 493.214 58.374C490.435 57.5303 487.879 56.225 485.691 54.533C484.053 53.358 483.012 51.6837 482.79 49.864C482.575 44.827 484.348 40.434 486.242 38.7205C486.588 38.3312 487.082 38.0584 487.639 37.95L488.606 37.766L489.198 37.6165C489.386 37.6165 489.587 37.513 489.802 37.4785C495.431 36.041 509.16 31.9585 509.16 31.9585C509.16 31.9585 508.555 42.182 508.811 43.079C508.861 43.2171 508.948 43.3432 509.066 43.447C509.883 44.1738 510.783 44.8287 511.753 45.402C512.035 45.5975 512.344 45.7815 512.639 45.977C513.982 46.805 515.218 47.5985 515.85 48.047C517.354 49.1395 507.588 57.385 502.846 59.248Z" fill="#FFCEA9"/>
<path d="M524.864 58.1784C524.864 58.6959 524.864 59.2709 524.77 59.8919C524.326 65.6419 522.916 70.9434 521.626 77.1419C521.384 78.2919 521.156 79.4419 520.928 80.5919C520.699 81.7419 520.498 82.9609 520.31 84.1799C520.044 86.1145 519.945 88.0633 520.014 90.0104C520.014 94.6104 520.632 99.9694 521.29 105.11C521.505 106.72 521.72 108.295 521.935 109.813C522.016 110.503 522.11 111.17 522.217 111.826C522.741 115.598 523.198 118.898 523.346 121.129C523.065 121.653 522.713 122.147 522.298 122.601C520.54 124.442 518.212 125.821 515.581 126.58C514.923 126.799 514.238 127.006 513.526 127.19C512.424 127.489 511.269 127.753 510.073 127.983C507.351 128.538 504.554 128.77 501.758 128.673C500.578 128.64 499.403 128.54 498.238 128.374C497.58 128.282 496.895 128.179 496.223 128.052C495.552 127.926 494.464 127.684 493.537 127.454C490.087 126.527 486.763 125.286 483.623 123.751C480.452 122.276 477.613 120.329 475.24 118.001C473.892 116.683 472.762 115.213 471.882 113.631C471.507 112.96 471.21 112.259 470.995 111.538C470.995 111.538 471.21 78.4529 470.995 67.6199C470.995 64.9979 470.995 62.6059 471.102 60.4209C471.09 60.2601 471.09 60.0987 471.102 59.9379C471.21 58.0749 471.371 56.3499 471.6 54.7399C472.056 51.1808 472.934 47.6707 474.219 44.2634C475.722 40.6649 478.734 37.673 482.669 35.8684C483.05 35.8085 483.438 35.7891 483.824 35.8109C485.68 36.0013 487.452 36.582 488.983 37.5014C489.072 37.5406 489.158 37.5868 489.238 37.6394C490.165 38.1224 490.783 38.5479 490.904 38.6169C490.278 39.0707 489.735 39.6017 489.292 40.1924C485.772 44.7924 486.417 54.0844 489.789 56.9249C501.865 55.9014 510.476 44.8499 510.476 44.8499C510.476 44.8499 510.852 45.0109 511.685 45.4134L512.626 45.9079C513.969 46.6209 516.092 47.7709 519.02 49.5534C519.235 49.6914 519.45 49.8179 519.665 49.9329C522.755 51.7614 524.42 52.3249 524.756 55.8094C524.756 55.8669 524.756 55.9129 524.756 55.9704C524.877 56.6144 524.891 57.3274 524.864 58.1784Z" fill="#DD7A7A"/>
<path d="M515.366 126.914C517.153 125.2 520.256 115.655 522.083 109.664C523.796 102.864 524.141 95.8634 523.104 88.9639C521.505 80.7299 517.113 69.3449 515.85 64.6299C514.587 59.9149 516.239 57.9139 518.698 56.0049C521.572 53.7739 525.844 54.4409 528.612 60.9959C532.225 70.0715 534.644 79.4637 535.826 88.9984C536.475 96.0929 535.753 103.23 533.69 110.124C531.836 116.518 529.136 121.198 525.629 127.086C524.689 128.685 522.54 133.158 521.156 136.401C519.772 139.644 513.714 128.489 515.366 126.914Z" fill="#FFCEA9"/>
<path d="M512.666 45.9195C512.666 45.9195 512.666 45.9195 512.666 46C510.503 48.4265 503.034 56.2004 493.268 58.3739C492.22 58.6187 491.151 58.788 490.071 58.88L489.009 58.972L488.244 58.328C487.063 57.2554 486.205 55.9529 485.745 54.5329C484.928 52.1889 484.587 49.7422 484.737 47.2995C484.799 44.525 485.662 41.8067 487.25 39.3874C487.651 38.8065 488.134 38.2697 488.687 37.789C488.792 37.6875 488.904 37.5915 489.023 37.5015C489.18 37.3629 489.351 37.236 489.533 37.1219L489.883 37.5015L490.944 38.6515L492.381 40.1809C492.196 40.3091 492.029 40.4558 491.884 40.6179C490.433 41.9634 489.466 44.5395 489.305 47.518C489.058 50.035 489.581 52.5637 490.823 54.855C499.971 53.4405 507.48 45.379 509.133 43.4929C509.95 44.2198 510.85 44.8747 511.82 45.448L512.666 45.9195Z" fill="#D5D7E2"/>
<path d="M482.266 16.767C483.609 8.84346 490.326 2.84046 499.837 3.28896C503.7 3.43349 507.412 4.61928 510.442 6.67704C513.471 8.7348 515.664 11.5593 516.706 14.7474C517.749 17.9354 517.589 21.324 516.248 24.4293C514.907 27.5346 512.455 30.1979 509.24 32.039C508.906 33.2342 508.41 34.392 507.763 35.489C504.391 38.87 494.181 40.963 491.239 40.6065C487.478 40.1465 485.436 38.801 483.649 35.2705C480.425 29.003 481.419 20.7 482.266 16.767Z" fill="#FFCEA9"/>
<path d="M509.133 31.9815L508.26 25.0815C508.26 25.0815 514.856 10.4535 499.273 13.2595C488.969 15.1225 486.39 15.9275 483.26 10.0165C480.13 4.10547 491.172 -1.21903 504.283 0.264468C508.802 0.667545 512.979 2.50998 515.985 5.42625C518.991 8.34252 520.606 12.1195 520.511 16.008C520.216 20.3435 518.872 29.141 509.133 31.9815Z" fill="#3A4151"/>
<path d="M535.879 71.6679C535.879 71.6679 527.362 78.9129 517.301 76.8314C515.863 75.9919 512.411 59.0524 512.411 59.0524C512.411 59.0524 512.411 49.6684 520.807 49.9214C529.203 50.1744 535.879 71.6679 535.879 71.6679Z" fill="#DD7A7A"/>
<path d="M482.763 35.9375C479.985 38.0897 477.583 40.5722 475.63 43.309C472.943 47.2535 471.828 54.6135 471.425 58.8685C471.237 60.858 471.197 62.1575 471.197 62.1575C471.197 62.1575 465.514 62.744 463.674 60.5245C463.842 59.3553 464.13 58.2009 464.533 57.0745C466.817 50.209 473.4 36.8 482.763 35.9375Z" fill="#DD7A7A"/>
<path d="M387.774 114.816C387.223 118.898 381.527 136.528 382.75 142.565C383.972 148.603 403.424 158.665 403.424 158.665L406.111 148.315L395.364 139.276L398.279 122.153L387.774 114.816Z" fill="#FFCEA9"/>
<path d="M402.82 97.4394C400.926 96.6915 398.779 96.564 396.783 97.0812C394.787 97.5984 393.083 98.7242 391.992 100.245C389.131 104.305 386.148 118.22 385.88 120.6C385.88 120.6 389.91 125.35 395.928 124.556L402.82 97.4394Z" fill="#EDEDED"/>
<path d="M425.039 293.974C429.271 294.975 433.793 294.508 437.626 292.675C440.662 292.755 457.118 286.718 459.361 291.778C461.323 296.217 454.189 300.334 450.374 301.116C442.059 302.841 435.906 306.394 432.575 306.992C430.09 307.441 426.866 307.74 424.877 306.061C422.5 304.06 422.715 296.619 425.039 293.974Z" fill="#2B303F"/>
<path d="M432.561 305.762C435.893 305.164 442.046 301.61 450.361 299.885C453.558 299.23 459.052 296.24 459.617 292.675C460.356 296.757 453.921 300.38 450.361 301.116C442.046 302.841 435.893 306.394 432.561 306.992C430.076 307.441 426.852 307.74 424.864 306.061C424.351 305.574 423.978 304.991 423.776 304.359C425.012 305.162 426.449 305.707 427.975 305.951C429.5 306.194 431.071 306.13 432.561 305.762Z" fill="#3A4151"/>
<path d="M398.333 283.716C402.57 284.71 407.093 284.243 410.933 282.417C413.956 282.486 430.425 276.46 432.655 281.52C434.617 285.959 427.497 290.064 423.682 290.858C415.366 292.583 409.214 296.125 405.869 296.734C403.384 297.183 400.16 297.47 398.185 295.803C395.807 293.79 396.009 286.35 398.333 283.716Z" fill="#2B303F"/>
<path d="M405.869 295.55C409.214 294.94 415.366 291.398 423.682 289.673C426.866 289.006 432.373 286.016 432.924 282.463C433.663 286.545 427.228 290.168 423.682 290.904C415.366 292.629 409.214 296.171 405.869 296.78C403.384 297.229 400.16 297.516 398.185 295.849C397.672 295.362 397.299 294.779 397.097 294.147C398.33 294.95 399.766 295.495 401.289 295.738C402.812 295.982 404.38 295.917 405.869 295.55Z" fill="#3A4151"/>
<path d="M405.56 97.75C409.483 97.911 412.411 98.7735 412.908 97.75C413.311 96.0024 413.594 94.236 413.754 92.46C413.298 91.4825 412.908 90.436 412.908 90.436C407.965 87.837 406.406 83.26 405.761 77.9355C404.646 68.839 410.396 60.881 421.022 59.9265C431.003 59.041 438.351 65.044 440.313 73.301C441.374 77.372 443.483 85.077 440.635 91.7815C439.05 95.519 436.995 98.4975 434.953 99.0725C432.974 99.0344 430.999 98.8884 429.042 98.6355C429.042 98.6355 428.518 101.165 428.155 102.787C427.793 104.408 427.927 105.259 431.702 107.249C435.477 109.238 425.992 113.332 419.8 112.93C413.607 112.527 406.648 109.33 404.741 105.903C402.672 102.074 402.86 97.5775 405.56 97.75Z" fill="#FFCEA9"/>
<path d="M411.242 98.187C410.154 100.487 412.922 103.362 420.31 105.34C427.698 107.318 428.37 104.776 428.37 104.776C428.37 104.776 439.198 108.997 442.717 111.113C447.164 113.758 449.125 121.463 449.716 134.401C450.415 149.351 450.468 171.66 449.891 175.502C449.891 175.502 441.602 182.574 431.003 181.826C420.404 181.079 402.551 173.041 398.225 166.877C398.346 153.721 400.133 151.582 397.648 144.003C391.965 126.661 388.956 119.554 391.723 108.031C394.007 98.532 397.204 97.3475 401.597 97.4395C404.825 97.5414 408.045 97.7909 411.242 98.187Z" fill="#F4F4F4"/>
<path d="M466.387 146.809C457.696 148.683 455.64 143.991 454.499 140.093C451.731 130.674 450.24 122.176 448.171 116.828C445.753 110.526 443.201 109.526 439.614 108.295C435.423 106.846 431.809 109.894 433.206 117.909C434.859 127.408 437.035 134.009 441.172 145.302C442.261 148.235 444.692 153.444 448.319 155.963C452.806 159.068 459.576 158.941 469.813 156.756C474.165 155.825 478.961 153.594 487.209 150.305C489.426 149.419 491.145 148.821 495.404 147.131C499.673 145.488 503.415 142.987 506.312 139.84C508.542 137.08 508.837 135.78 508.381 135.148C507.924 134.515 506.795 134.538 505.613 135.7C503.893 137.662 501.772 139.341 499.353 140.656C499.353 140.656 502.04 138.23 503.585 136.643C504.919 135.244 506.027 133.696 506.876 132.043C507.669 130.433 506.043 128.248 504.821 129.386C503.598 130.525 502.994 131.686 500.791 133.986C499.609 135.219 498.256 136.324 496.761 137.275C498.162 135.659 499.407 133.948 500.482 132.158C501.428 130.764 501.894 129.169 501.825 127.558C501.825 126.718 500.374 125.718 499.138 127.316C497.849 128.8 497.043 130.996 494.356 133.4C492.368 135.171 490.675 136.183 490.621 135.7C490.568 135.217 491.83 134.239 492.542 132.181C493.254 130.122 492.542 127.949 491.199 127.707C489.856 127.466 490.124 127.535 489.063 129.467C488.002 131.399 486.376 132.813 485.1 135.619C484.431 137.599 483.204 139.408 481.527 140.886C479.404 142.864 474.662 145.026 466.387 146.809Z" fill="#FFCEA9"/>
<path d="M436.403 107.007C442.207 106.271 446.317 108.514 448.883 116.046C451.449 123.579 453.249 129.777 453.249 129.777C450.944 132.616 447.461 134.594 443.51 135.309C436.551 136.746 434.106 133.906 434.106 133.906C434.106 133.906 432.185 126.005 430.976 120.623C429.767 115.241 429.203 107.916 436.403 107.007Z" fill="#EDEDED"/>
<path d="M440.031 72.0935C440.031 72.0935 449.219 60.145 429.284 57.7185C414.977 55.959 405.694 63.848 404.687 72.45C403.666 80.6265 409.55 89.125 413.808 92.4945C415.877 93.127 420.337 93.495 426.207 91.218C426.438 88.9889 426.528 86.7508 426.476 84.5135C426.476 84.5135 419.491 71.8865 440.031 72.0935Z" fill="#3A4151"/>
<path d="M558.837 118.45C558.837 118.45 557.292 138.299 554.256 141.151C551.22 144.003 540.93 145.958 540.93 145.958L533.018 157.113C533.018 157.113 540.245 121.635 541.817 120.784C543.389 119.933 558.837 118.45 558.837 118.45Z" fill="#FFCEA9"/>
<path d="M543.59 96.4045C545.517 95.64 547.705 95.5081 549.738 96.0339C551.772 96.5597 553.509 97.7065 554.619 99.2565C557.534 103.385 560.557 117.564 560.839 119.956C560.839 119.956 556.742 124.786 550.616 123.981L543.59 96.4045Z" fill="#434B5B"/>
<path d="M520.122 294.457C515.809 295.48 511.199 295.005 507.292 293.135C504.203 293.215 487.438 287.074 485.154 292.226C483.166 296.746 490.42 300.932 494.302 301.737C502.779 303.496 509.079 307.107 512.438 307.717C514.976 308.177 518.254 308.476 520.269 306.774C522.701 304.75 522.486 297.16 520.122 294.457Z" fill="#38226D"/>
<path d="M512.438 306.463C509.039 305.854 502.779 302.243 494.302 300.483C491.051 299.805 485.449 296.769 484.899 293.135C484.146 297.298 490.702 300.989 494.302 301.737C502.779 303.496 509.079 307.107 512.438 307.717C514.976 308.177 518.254 308.476 520.269 306.774C520.799 306.281 521.182 305.685 521.384 305.037C520.127 305.858 518.663 306.414 517.109 306.662C515.555 306.909 513.955 306.841 512.438 306.463Z" fill="#9C73FF"/>
<path d="M546.223 287.5C541.915 288.522 537.309 288.047 533.408 286.177C530.318 286.258 513.553 280.117 511.269 285.269C509.267 289.788 516.535 293.974 520.417 294.779C528.88 296.539 535.194 300.15 538.553 300.759C541.078 301.219 544.369 301.518 546.384 299.816C548.802 297.758 548.601 290.191 546.223 287.5Z" fill="#38226D"/>
<path d="M538.553 299.506C535.14 298.885 528.88 295.274 520.417 293.514C517.166 292.847 511.564 289.8 511.014 286.166C510.261 290.329 516.817 294.02 520.417 294.768C528.88 296.527 535.194 300.138 538.553 300.748C541.078 301.208 544.369 301.507 546.384 299.805C546.909 299.309 547.291 298.714 547.499 298.068C546.241 298.887 544.777 299.442 543.224 299.692C541.671 299.942 540.072 299.878 538.553 299.506Z" fill="#9C73FF"/>
<path d="M548.09 247.123C547.372 241.792 546.077 236.529 544.221 231.403C544.221 231.403 545.377 217.844 545.954 204.953C546.613 190.359 552.523 177.514 547.862 165.853L495.928 175.743C495.928 175.743 498.44 234.059 499.138 241.109C499.526 246.593 500.316 252.051 501.503 257.45C503.894 268.743 506.513 294.032 506.513 294.032C512.075 296.792 520.229 294.515 520.229 294.515C520.229 294.515 520.229 262.867 519.907 254.725C519.463 244.789 519.114 245.525 519.114 245.525L520.86 220.765L521.989 208.449C521.989 208.449 523.453 217.488 524.393 225.561C525.226 232.599 527.215 238.97 529.431 252.068C531.352 263.442 533.327 286.568 533.327 286.568C538.902 289.328 546.384 287.431 546.384 287.431C546.384 287.431 549.581 256.99 548.09 247.123Z" fill="#C1C4D3"/>
<path d="M540.796 96.5999C536.766 96.7724 533.81 97.6464 533.313 96.5999C532.881 94.8313 532.576 93.0416 532.4 91.2409C532.857 90.2519 533.26 89.1824 533.26 89.1824C538.284 86.5259 539.882 81.8685 540.541 76.4519C541.669 67.1829 535.826 59.0754 524.998 58.1094C514.815 57.2009 507.333 63.3189 505.331 71.7254C504.257 75.8769 502.121 83.7199 505.009 90.5509C506.634 94.3574 508.717 97.4509 510.799 97.9799C512.818 97.9379 514.833 97.7881 516.83 97.5314C516.83 97.5314 517.368 100.107 517.744 101.763C518.12 103.419 517.972 104.282 514.13 106.363C510.288 108.445 519.934 112.562 526.22 112.113C532.507 111.665 539.654 108.445 541.562 104.96C543.738 101.119 543.55 96.5309 540.796 96.5999Z" fill="#FFCEA9"/>
<path d="M535.006 97.1519C536.108 99.5209 533.3 102.419 525.764 104.443C518.227 106.467 517.569 103.868 517.569 103.868C517.569 103.868 506.54 108.169 502.94 110.319C498.426 113.022 496.425 120.842 495.82 134.044C495.108 149.327 495.054 171.994 495.646 175.904C495.646 175.904 504.082 183.103 514.882 182.344C525.683 181.585 543.859 173.408 548.265 167.083C548.144 153.686 546.317 151.512 548.856 143.784C554.646 126.12 557.709 118.887 554.888 107.145C552.564 97.4624 549.299 96.2664 544.839 96.3584C541.547 96.4721 538.265 96.737 535.006 97.1519Z" fill="#434B5B"/>
<path d="M505.103 187.668L510.597 134.458L499.017 129.202L494.49 132.445L495.834 180.239V181.55L495.914 183.229C495.914 183.229 495.646 187.254 504.512 192.061C504.512 192.061 504.659 190.808 504.78 189.623L504.982 187.645L505.103 187.668Z" fill="#FFCEA9"/>
<path d="M506.513 107.03C500.535 106.927 496.72 109.641 495.269 117.541C493.819 125.442 492.919 131.893 492.919 131.893C495.674 134.512 499.495 136.129 503.598 136.413C510.839 137.103 512.935 133.952 512.935 133.952C512.935 133.952 513.7 125.752 514.103 120.152C514.506 114.551 513.915 107.157 506.513 107.03Z" fill="#434B5B"/>
<path d="M505.68 70.5869C505.68 70.5869 496.277 58.4084 516.589 55.9359C531.204 54.1419 540.594 62.1804 541.683 70.8859C542.717 79.2119 536.726 87.8714 532.4 91.2984C530.291 91.9424 525.683 92.3219 519.772 89.9989C519.532 87.7281 519.438 85.4476 519.49 83.1679C519.49 83.1679 526.597 70.3684 505.68 70.5869Z" fill="#3A2C6D"/>
<path d="M262.277 248.94C258.879 251.309 253.854 249.136 253.599 249.354C249.603 252.536 245.405 255.527 241.025 258.313C238.903 259.75 235.652 261.659 236.189 264.408C237.264 269.33 246.453 267.858 249.918 266.305C253.384 264.753 256.219 262.315 259.497 260.555C261.834 259.313 264.145 258.669 264.507 256.139C264.722 254.621 262.882 248.871 262.277 248.94Z" fill="#38226D"/>
<path d="M264.467 255.127C264.01 257.554 261.78 258.221 259.416 259.451C256.084 261.234 253.143 263.787 249.677 265.293C246.479 266.673 238.486 268.053 236.243 264.546C237.465 269.284 246.493 267.8 249.918 266.305C253.344 264.81 256.219 262.315 259.497 260.555C261.834 259.313 264.145 258.669 264.507 256.139C264.537 255.802 264.524 255.462 264.467 255.127Z" fill="#9C73FF"/>
<path d="M232.723 239.522C229.311 241.902 223.32 239.303 223.105 239.522C219.563 242.601 215.813 245.501 211.875 248.204C209.752 249.642 206.434 251.551 207.038 254.299C208.1 259.21 217.302 257.749 220.768 256.197C224.233 254.644 227.055 252.206 230.346 250.447C232.683 249.205 234.98 248.561 235.343 246.031C235.571 244.513 233.328 239.464 232.723 239.522Z" fill="#38226D"/>
<path d="M235.249 245.364C234.792 247.79 232.562 248.457 230.198 249.688C226.866 251.47 223.924 254.023 220.459 255.53C217.261 256.91 209.268 258.29 207.025 254.782C208.247 259.52 217.275 258.037 220.7 256.542C224.126 255.047 227.001 252.551 230.279 250.792C232.616 249.55 234.927 248.906 235.289 246.376C235.319 246.038 235.306 245.699 235.249 245.364Z" fill="#9C73FF"/>
<path d="M262.479 141.289C262.318 145.693 260.706 164.852 259.994 174.984C259.282 185.115 259.12 197.547 259.12 197.547C259.12 197.547 261.162 204.93 262.479 213.647C263.795 222.364 262.479 249.722 262.479 249.722C261.179 250.438 259.665 250.819 258.12 250.819C256.574 250.819 255.061 250.438 253.76 249.722C253.76 249.722 248.306 227.792 245.781 217.913C243.255 208.035 242.812 202.342 241.509 196.213C239.924 188.807 236.512 154.238 236.512 154.238L235.168 154.307L231.514 193.326C232.644 196.201 233.419 199.169 233.825 202.181C234.806 208.541 232.777 240.522 232.777 240.522C231.325 241.21 229.679 241.543 228.021 241.484C226.362 241.425 224.755 240.977 223.374 240.189C223.374 240.189 214.279 197.834 214.279 191.383C214.279 187.128 215.125 130.904 215.125 130.904L262.479 141.289Z" fill="#DD7A7A"/>
<path d="M223.105 144.256C221.627 143.175 220.7 141.818 218.457 140.438C216.496 139.219 215.058 138.609 213.876 136.988C212.694 135.366 212.761 129.053 212.304 123.372C211.754 116.679 213.191 107.881 214.655 104.339C217.638 97.152 216.711 85.1345 218.685 81.075C220.66 77.0155 226.477 77.901 224.623 75.854C222.46 73.439 214.024 71.9325 210.303 77.4525C206.582 82.9725 206.662 95.0935 204.016 103.5C202.673 107.559 202.538 111.849 203.196 120.451C203.653 126.465 203.774 132.353 205.803 138.126C206.353 139.702 206.3 141.427 206.931 144.532C207.562 147.637 208.449 151.351 210.437 153.364C212.425 155.376 213.527 155.825 214.172 155.664C214.817 155.503 215.045 154.755 214.252 153.755C212.872 152.235 211.817 150.518 211.136 148.683C211.136 148.683 212.734 150.983 213.822 152.248C214.797 153.396 215.944 154.429 217.235 155.319C218.497 156.158 220.768 155.549 220.002 154.514C219.236 153.479 218.323 152.858 216.724 150.937C215.878 149.915 215.175 148.811 214.628 147.648C215.78 148.881 217.042 150.035 218.403 151.098C219.447 152.009 220.777 152.64 222.232 152.915C222.984 153.053 224.153 152.352 223.011 151.179C221.869 150.006 220.15 149.178 218.551 146.901C217.382 145.256 216.832 143.945 217.275 144.014C217.718 144.083 218.323 145.095 219.962 145.969C221.601 146.843 223.723 146.82 224.193 145.969C224.663 145.118 224.596 145.337 223.105 144.256Z" fill="#FFCEA9"/>
<path d="M250.133 56.0509C250.133 56.0509 249.556 65.6649 249.798 66.5159C250.039 67.3669 254.956 70.1844 256.393 71.1964C257.831 72.2084 248.615 79.9709 244.155 81.7304C239.695 83.4899 225.51 78.8554 225.268 72.8984C225.026 66.9414 227.686 61.9504 229.862 61.6859C232.038 61.4214 250.133 56.0509 250.133 56.0509Z" fill="#FFCEA9"/>
<path d="M251.383 68.1835C251.383 68.1835 243.242 78.5335 231.864 79.557C228.277 76.5325 227.955 65.757 232.912 62.307C232.912 62.307 228.358 59.156 225.228 59.7655C221.879 61.5077 219.386 64.2345 218.215 67.436C215.312 74.588 213.946 82.1312 214.185 89.7C214.373 99.9005 214.185 131.1 214.185 131.1C214.185 131.1 215.784 137.689 226.074 142.6C236.364 147.51 243.994 147.982 250.966 146.59C256.729 145.44 261.485 143.704 263.473 140.127C262.949 132.974 259.228 114.321 260.612 105.328C261.995 96.3355 264.225 89.6195 264.803 82.3285C265.381 75.0375 263.688 75.21 259.429 72.6225C256.877 70.9766 254.188 69.493 251.383 68.1835Z" fill="#EDEDED"/>
<path d="M244.558 149.017C246.385 148.108 247.675 146.809 250.375 145.705C252.753 144.727 254.405 144.313 256.044 142.749C257.683 141.185 259.738 134.838 261.498 128.858C263.196 122.126 263.537 115.195 262.506 108.365C260.921 100.2 256.568 88.9065 255.319 84.2145C254.069 79.5225 255.708 77.5445 258.14 75.6585C260.988 73.439 265.233 74.106 267.973 80.6035C271.552 89.606 273.953 98.9204 275.133 108.376C275.775 115.41 275.053 122.486 272.997 129.317C271.17 135.665 268.497 140.312 265.045 146.142C264.104 147.729 263.876 149.109 262.492 152.317C261.176 155.539 258.968 158.439 256.058 160.77C253.478 162.599 252.216 162.897 251.557 162.621C250.899 162.346 250.832 161.471 251.907 160.563C253.726 159.169 255.237 157.506 256.367 155.653C256.367 155.653 254.15 157.826 252.699 159.022C251.407 160.093 249.952 161.009 248.374 161.747C246.829 162.437 244.545 161.414 245.593 160.436C246.641 159.459 247.756 158.953 249.892 157.147C251.023 156.197 252.02 155.135 252.86 153.985C251.355 155.116 249.747 156.143 248.051 157.056C246.734 157.853 245.176 158.308 243.564 158.367C242.731 158.367 241.643 157.447 243.121 156.389C244.599 155.331 246.627 154.709 248.844 152.547C250.456 150.972 251.342 149.672 250.845 149.672C250.348 149.672 249.502 150.65 247.5 151.317C245.499 151.984 243.309 151.616 242.973 150.673C242.637 149.73 242.731 149.937 244.558 149.017Z" fill="#FFCEA9"/>
<path d="M224.704 41.7219C226.047 34.2584 232.334 28.6004 241.321 29.0719C244.937 29.2332 248.403 30.3625 251.229 32.3004C254.056 34.2384 256.1 36.8871 257.074 39.8729C258.047 42.8587 257.901 46.0309 256.656 48.9418C255.411 51.8527 253.129 54.3555 250.133 56.0969C249.83 57.2252 249.379 58.3208 248.79 59.3629C245.62 62.5484 236.001 64.5149 233.234 64.1699C229.687 63.7329 227.766 62.4679 226.074 59.1559C222.998 53.2449 223.978 45.4134 224.704 41.7219Z" fill="#FFCEA9"/>
<path d="M250.133 56.0509L249.3 49.5419C249.3 49.5419 255.52 35.7419 240.837 38.4099C231.138 40.1579 228.747 40.9054 225.765 35.3394C222.783 29.7734 233.207 24.7709 245.566 26.1394C249.82 26.5218 253.751 28.2572 256.582 31.0022C259.413 33.7472 260.937 37.3019 260.853 40.9629C260.517 45.0799 259.268 53.3714 250.133 56.0509Z" fill="#3A4151"/>
<path d="M275.268 93.426C275.268 93.426 267.208 100.257 257.804 98.2905C256.461 97.497 253.183 81.5465 253.183 81.5465C253.183 81.5465 253.183 72.7145 261.109 72.9445C269.034 73.1745 275.268 93.426 275.268 93.426Z" fill="#D5D7E2"/>
<path d="M214.749 80.2009C214.749 80.2009 210.558 80.0169 208.825 77.9009C209.147 74.3359 214.494 60.7659 225.228 59.7539C222.309 61.4992 219.99 63.8817 218.511 66.6539C216.563 70.8054 214.749 80.2009 214.749 80.2009Z" fill="#D5D7E2"/>
<path d="M240.743 111.768L241.509 111.343C244.102 109.894 261.418 100.763 263.11 98.2675C267.943 90.7412 271.989 82.8637 275.2 74.727C277.014 69.782 280.238 67.9765 283.758 68.3675C287.707 68.816 289.131 71.277 287.049 76.659C284.362 83.4325 281.917 90.6085 275.509 98.6585C273.65 101.036 271.531 103.258 269.182 105.294C267.184 107.085 265.058 108.767 262.815 110.331C259.47 112.527 247.823 116.955 244.008 118.473C240.153 120.144 235.936 121.111 231.622 121.313C230.69 121.383 229.755 121.215 228.935 120.83C228.555 120.579 228.24 120.264 228.009 119.904C227.778 119.544 227.636 119.147 227.592 118.737C227.518 117.918 227.572 117.095 227.753 116.288C232.36 115.448 236.758 113.918 240.743 111.768Z" fill="#FFCEA9"/>
<path d="M291.065 33.7524C293.148 30.8889 309.026 29.0029 314.252 40.5259C316.227 44.8959 315.918 56.0624 317.583 63.0774C319.249 70.0924 323.145 74.0714 324.542 79.7639C325.939 85.4564 323.655 94.9899 307.629 96.6804C291.603 98.3709 282.105 92.9659 278.304 88.6304C274.502 84.2949 271.587 75.5434 275.617 70.5524C279.647 65.5614 282.535 61.5019 282.441 55.0044L291.065 33.7524Z" fill="#3A2C6D"/>
<path d="M301.557 31.7629C301.557 31.7629 289.588 28.8074 282.334 34.3389C279.941 36.2267 278.2 38.6406 277.3 41.3174C276.4 43.9941 276.375 46.8311 277.229 49.5189C278.196 52.7504 280.131 57.1549 283.126 57.4079C286.122 57.6609 301.557 31.7629 301.557 31.7629Z" fill="#3A2C6D"/>
<path d="M283.153 87.1354C283.153 87.1354 274.193 85.7209 270.485 79.9249L278.693 71.2999C278.693 71.2999 282.723 66.4124 288.271 68.9999C293.819 71.5874 291.898 78.6254 283.153 87.1354Z" fill="#EDEDED"/>
<path d="M306.125 59.6849C306.125 59.6849 305.332 71.0929 305.574 71.9324C305.816 72.7719 310.813 73.5769 312.21 74.5774C313.607 75.5779 304.942 87.1469 300.563 88.8604C296.184 90.5739 282.549 86.2499 281.608 80.3964C280.735 75.0604 285.504 70.9089 287.344 69.4599C288.59 69.3644 289.842 69.3375 291.092 69.3794L291.495 63.8479C297.46 62.2264 306.125 59.6849 306.125 59.6849Z" fill="#FFCEA9"/>
<path d="M315.488 96.0364C313.58 100.36 312.035 103.764 310.705 106.478C309.779 108.376 308.959 109.928 308.193 111.216C308.193 111.216 291.992 117.173 278.922 110.239C278.922 110.239 278.639 107.674 278.357 104.696C278.183 102.396 277.995 99.9579 277.968 98.1524C265.878 89.1594 276.221 78.0504 286.431 69.4024C287.656 69.3164 288.887 69.3164 290.112 69.4024C290.112 69.4024 281.004 78.6024 287.331 83.8809C300.912 80.3619 303.599 75.1409 307.952 73.0594C311.686 73.5539 316.012 75.2674 316.562 77.0154C317.248 79.0509 318.725 88.6994 315.488 96.0364Z" fill="#F4F4F4"/>
<path d="M281.219 45.5399C282.562 38.2144 288.755 32.6714 297.581 33.1199C301.135 33.2832 304.54 34.3993 307.312 36.3102C310.085 38.2212 312.085 40.8302 313.03 43.768C313.975 46.7059 313.816 49.8237 312.577 52.6802C311.338 55.5367 309.08 57.9872 306.125 59.6849C305.826 60.7922 305.375 61.8653 304.781 62.8819C301.651 66.0099 293.349 67.9879 290.609 68.0109C288.231 68.0109 286.189 66.1364 283.973 62.9969C279.311 56.4304 280.48 49.1624 281.219 45.5399Z" fill="#FFCEA9"/>
<path d="M300.321 33.2579C306.514 34.2929 311.605 35.7879 313.285 40.9859C314.44 44.5739 315.971 51.4164 314.507 54.2914L313.621 56.3499L306.125 59.6619C306.125 59.6619 302.618 57.1664 303.707 49.8409C303.658 48.8776 303.295 47.9453 302.659 47.1499C302.19 46.4599 301.837 45.7165 301.611 44.9419C300.727 42.9636 298.992 41.3503 296.761 40.4339C291.173 37.7544 282.992 40.0659 281.864 41.0319C283.423 38.1141 286.112 35.7469 289.475 34.3304C292.838 32.9139 296.669 32.5351 300.321 33.2579Z" fill="#3A2C6D"/>
<path d="M317.033 126.35C318.376 118.921 321.063 114.103 319.813 110.02C317.129 101.748 313.6 93.6941 309.268 85.951C306.581 81.351 307.36 78.108 310.208 76.291C313.392 74.244 316.455 75.141 319.33 80.2585C322.943 86.6985 327.027 93.2995 329.002 102.89C329.969 107.49 330.48 112.09 328.733 121.612C327.511 128.282 325.026 132.043 322.097 138.31C321.251 140.024 315.81 132.652 317.033 126.35Z" fill="#FFCEA9"/>
<path d="M311.579 264.891C308.435 267.076 303.518 265.569 303.33 265.765C300.147 268.502 295.391 270.882 291.845 273.274C289.897 274.585 286.847 276.356 287.398 278.875C288.379 283.406 296.802 282.014 300.026 280.623C303.25 279.231 305.829 276.954 308.838 275.344C311.001 274.194 313.11 273.608 313.446 271.285C313.647 269.87 312.129 264.833 311.579 264.891Z" fill="#C1C4D3"/>
<path d="M313.406 270.342C312.989 272.573 310.907 273.182 308.771 274.321C305.695 275.954 302.995 278.311 299.811 279.691C296.855 280.968 289.507 282.233 287.438 279.001C288.567 283.36 296.842 281.991 300.026 280.623C303.21 279.254 305.829 276.954 308.838 275.344C311.001 274.194 313.11 273.608 313.446 271.285C313.477 270.97 313.463 270.654 313.406 270.342Z" fill="#A7ABB7"/>
<path d="M289.574 261.13C286.713 263.131 282.374 262.004 282.159 262.188C279.244 264.695 274.905 266.857 271.667 269.088C269.881 270.296 267.087 271.906 267.637 274.217C268.537 278.357 276.275 277.092 279.204 275.816C282.132 274.539 284.51 272.458 287.264 270.986C289.239 269.939 291.173 269.387 291.482 267.26C291.643 265.926 290.085 261.05 289.574 261.13Z" fill="#C1C4D3"/>
<path d="M291.415 266.351C291.039 268.398 289.118 268.962 287.17 269.997C284.349 271.492 281.877 273.654 278.962 274.919C276.275 276.069 269.558 277.219 267.637 274.286C268.658 278.277 276.275 277.023 279.163 275.77C282.052 274.516 284.47 272.412 287.223 270.94C289.198 269.893 291.133 269.341 291.442 267.214C291.47 266.926 291.461 266.637 291.415 266.351Z" fill="#A7ABB7"/>
<path d="M272.702 136.286C274.045 127.086 278.075 113.597 278.075 113.597C281.842 115.107 285.917 115.974 290.071 116.15C297.043 116.449 308.207 114.632 308.207 114.632C310.16 117.553 312.295 120.382 314.601 123.107C317.718 126.81 323.776 134.918 322.312 149.097C321.358 158.366 315.286 197.708 315.286 197.708C317.641 204.328 318.894 211.2 319.007 218.12C319.007 223.87 317.194 233.565 315.219 242.558L311.605 264.891C311.605 264.891 306.783 267.869 303.357 265.765L303.787 243.915C303.371 238.567 302.753 230.667 302.35 225.63C301.705 217.43 299.985 204.389 299.488 201.135C298.991 197.88 297.782 192.199 297.191 185.817C296.6 179.434 293.806 147.062 293.806 147.062L293.416 153.134C293.416 153.134 293.054 162.978 291.401 175.122C289.749 187.266 289.171 192.659 289.171 192.659C289.171 192.659 292.033 197.179 292.409 200.514C292.691 203.136 296.197 223.905 294.101 234.473L289.803 261.337C288.729 261.968 287.497 262.372 286.206 262.518C284.915 262.664 283.602 262.547 282.374 262.177L279.848 235.094C278.156 224.744 274.556 202.894 274.005 200.111C273.279 196.385 272.661 194.534 271.855 182.792C271.049 171.051 271.358 145.544 272.702 136.286Z" fill="#FFCEA9"/>
<path d="M308.193 111.228L317.503 127.224C317.503 127.224 331.702 145.026 316.992 190.773L319.719 204.895C319.719 204.895 291.858 220.202 273.212 204.895C273.212 204.895 266.737 162.61 270.19 143.117C272.097 131.905 274.998 120.833 278.868 109.997C278.868 109.997 283.435 114.31 306.917 111.458" fill="#C1C4D3"/>
<path d="M324.891 89.24C324.891 89.24 318.43 94.7485 310.759 94.0585L307.078 83.3405C307.078 83.3405 304.687 77.717 310.276 75.2905C315.864 72.864 321.681 78.2 324.891 89.24Z" fill="#EDEDED"/>
<path d="M224.824 111.228C224.831 111.297 224.831 111.366 224.824 111.435C224.83 111.512 224.83 111.588 224.824 111.665C224.806 111.721 224.779 111.776 224.744 111.826C224.748 111.876 224.748 111.926 224.744 111.975C224.677 112.056 224.623 112.148 224.542 112.228V112.297L224.395 112.447C224.34 112.5 224.282 112.55 224.22 112.596L224.018 112.757L223.696 112.953L223.36 113.114L223.011 113.24H222.944C222.838 113.269 222.73 113.292 222.621 113.309C222.492 113.315 222.362 113.315 222.232 113.309C221.904 113.34 221.574 113.267 221.305 113.102C221.237 113.053 221.178 112.995 221.13 112.93L235.088 132.468C235.216 132.609 235.385 132.719 235.579 132.785C235.772 132.852 235.983 132.874 236.189 132.848H236.565H236.78H236.901H236.968L237.183 132.779H237.264H237.331L237.533 132.687H237.613L237.828 132.56L237.989 132.445L238.164 132.296L238.245 132.215V132.146V132.077C238.312 131.985 238.379 131.905 238.433 131.813C238.438 131.775 238.438 131.736 238.433 131.698C238.463 131.646 238.49 131.592 238.513 131.537C238.526 131.48 238.526 131.421 238.513 131.364V131.284C238.513 131.284 238.513 131.284 238.513 131.215C238.513 131.146 238.513 131.134 238.513 131.088C238.519 131.066 238.519 131.042 238.513 131.019C238.523 130.985 238.523 130.95 238.513 130.916L224.274 111.63C224.267 111.57 224.278 111.509 224.305 111.453C224.331 111.397 224.373 111.347 224.427 111.307C224.481 111.268 224.546 111.24 224.615 111.226C224.684 111.212 224.756 111.213 224.824 111.228Z" fill="#2B303F"/>
<path d="M223.642 110.664C224.69 110.664 225.16 111.239 224.677 112.044C224.382 112.466 223.975 112.822 223.49 113.083C223.004 113.345 222.454 113.505 221.883 113.551C220.821 113.551 220.365 112.976 220.848 112.171C221.141 111.748 221.548 111.392 222.033 111.13C222.519 110.868 223.071 110.708 223.642 110.664Z" fill="#252935"/>
<path d="M198.481 76.797C198.488 76.8466 198.488 76.8969 198.481 76.9465C198.494 77.0035 198.494 77.062 198.481 77.119V77.234C198.481 77.234 198.481 77.234 198.481 77.326C198.444 77.3914 198.399 77.4531 198.347 77.51L198.239 77.625L198.118 77.7285L197.971 77.8435C197.904 77.8995 197.827 77.9461 197.742 77.9815C197.671 78.0262 197.594 78.0647 197.514 78.0965L197.259 78.177H197.03H196.748C196.515 78.1922 196.283 78.1395 196.09 78.0275L195.969 77.901L221.493 112.401C221.585 112.499 221.705 112.575 221.842 112.622C221.978 112.668 222.127 112.683 222.272 112.666H222.527H222.675H222.756H222.836H222.997L223.145 112.597H223.212L223.36 112.505C223.389 112.472 223.426 112.444 223.468 112.424L223.589 112.309V112.252L223.723 112.067C223.725 112.041 223.725 112.014 223.723 111.987C223.73 111.949 223.73 111.91 223.723 111.872C223.723 111.872 223.723 111.792 223.723 111.745V111.642C223.723 111.642 223.723 111.642 223.723 111.562V111.481L198.199 76.981C198.217 76.9283 198.253 76.8819 198.304 76.8487C198.355 76.8156 198.417 76.7974 198.481 76.797Z" fill="#D5D7E2"/>
<path d="M197.648 76.3829C198.387 76.3829 198.723 76.7969 198.374 77.3604C198.161 77.6566 197.873 77.9078 197.531 78.095C197.189 78.2822 196.802 78.4007 196.399 78.4414C195.647 78.4414 195.324 78.0274 195.674 77.4639C195.88 77.1637 196.167 76.9093 196.51 76.7215C196.853 76.5337 197.243 76.4177 197.648 76.3829Z" fill="#C1C4D3"/>
<path d="M182.294 55.867C182.301 55.9012 182.301 55.9362 182.294 55.9705C182.3 56.0047 182.3 56.0397 182.294 56.074V56.1545C182.3 56.1772 182.3 56.2007 182.294 56.2235C182.267 56.2644 182.236 56.3029 182.2 56.3385L182.133 56.4075V56.4765L182.025 56.5455L181.877 56.626L181.716 56.695L181.555 56.7525H181.407H181.233C181.08 56.76 180.928 56.7236 180.803 56.649C180.797 56.6262 180.797 56.6027 180.803 56.58L196.09 77.28C196.15 77.3444 196.229 77.3942 196.318 77.4245C196.408 77.4548 196.505 77.4644 196.601 77.4525H196.896H197.004H197.084L197.178 77.395L197.259 77.326L197.353 77.1995V77.119C197.353 77.119 197.353 77.119 197.353 77.0385V76.935L182.052 56.235C181.995 56.2075 181.953 56.1618 181.935 56.1079C181.918 56.054 181.926 55.9963 181.958 55.9475C181.99 55.8987 182.043 55.8628 182.106 55.8477C182.169 55.8326 182.237 55.8395 182.294 55.867Z" fill="#D5D7E2"/>
<path d="M181.756 55.6139C182.24 55.6139 182.455 55.8784 182.227 56.2464C182.082 56.4443 181.886 56.61 181.652 56.73C181.418 56.8499 181.155 56.9207 180.883 56.9364C180.4 56.9364 180.185 56.6719 180.413 56.3039C180.551 56.1013 180.746 55.9318 180.981 55.8112C181.216 55.6906 181.483 55.6227 181.756 55.6139Z" fill="#C1C4D3"/>
<path d="M186.404 58.7995L190.206 56.902V57.822L186.391 59.7195L186.404 58.7995Z" fill="#653AB8"/>
<path d="M176.262 53.7854L180.077 51.8879L190.206 56.9019L186.404 58.7994L176.262 53.7854Z" fill="#7945DC"/>
<path d="M186.404 58.7994L186.391 59.7194L176.262 54.7169V53.7854L186.404 58.7994Z" fill="#4B2B89"/>
<path d="M196.547 51.5659V60.7659C196.561 60.8768 196.561 60.9886 196.547 61.0994C196.527 61.1955 196.491 61.2885 196.439 61.3754C196.403 61.4408 196.358 61.5025 196.305 61.5594C196.247 61.6149 196.179 61.6615 196.104 61.6974L197.165 61.1684C197.241 61.1325 197.309 61.0859 197.366 61.0304V60.9614L197.433 60.8579V60.7774V60.6969C197.433 60.6969 197.433 60.6969 197.433 60.6164C197.427 60.5937 197.427 60.5701 197.433 60.5474V60.4669C197.44 60.4443 197.44 60.4206 197.433 60.3979V60.3174V51.1174L196.547 51.5659Z" fill="#212531"/>
<path d="M197.608 50.9564V50.8874C197.615 50.8609 197.615 50.8335 197.608 50.8069V50.7379C197.603 50.7113 197.603 50.684 197.608 50.6574C197.608 50.6574 197.608 50.6574 197.608 50.5884C197.608 50.5194 197.608 50.5884 197.608 50.5079C197.61 50.4811 197.61 50.4542 197.608 50.4274C197.614 50.397 197.614 50.3659 197.608 50.3354C197.614 50.3088 197.614 50.2815 197.608 50.2549C197.602 50.2283 197.602 50.201 197.608 50.1744V50.0939V50.0249V49.9674V49.8984C197.603 49.8679 197.603 49.837 197.608 49.8064V49.7144V49.6109L197.474 49.4269L197.353 49.2889L197.272 49.1969L197.205 49.1279V49.0589L197.125 48.9899L197.044 48.9209L196.963 48.8634L196.883 48.7944H196.802H196.721H196.641H196.56L174.811 38.0419H174.731H174.65H174.583H174.502H173.965H173.844H173.696L172.635 38.5709C172.463 38.5354 172.306 38.4578 172.185 38.3476C172.063 38.2373 171.982 38.0992 171.95 37.9499C172.052 37.9329 172.157 37.9329 172.259 37.9499C172.37 37.9347 172.484 37.9347 172.595 37.9499C172.723 37.9855 172.845 38.0358 172.957 38.0994L194.787 48.8519L195.15 49.0589C195.268 49.141 195.38 49.2294 195.486 49.3234C195.596 49.4216 195.699 49.5253 195.795 49.6339C195.895 49.7425 195.985 49.8579 196.063 49.9789L196.278 50.3469C196.278 50.4849 196.399 50.6114 196.453 50.7379C196.453 50.8759 196.533 51.0024 196.56 51.1289C196.56 51.2669 196.56 51.3934 196.56 51.5199L197.622 50.9909L197.608 50.9564Z" fill="#1F232D"/>
<path d="M194.787 48.852C195.32 49.1489 195.763 49.5495 196.081 50.0212C196.399 50.4929 196.581 51.0223 196.614 51.566V60.766C196.614 61.755 195.781 62.1575 194.774 61.663L173.025 50.9105C172.492 50.6136 172.048 50.2129 171.731 49.7412C171.413 49.2695 171.23 48.7402 171.198 48.1965V38.9965C171.198 37.996 172.031 37.5935 173.038 38.0995L194.787 48.852Z" fill="#171A22"/>
<path d="M193.605 49.7835C193.831 49.9094 194.019 50.0791 194.155 50.2789C194.29 50.4787 194.369 50.7029 194.384 50.9335C194.384 51.359 194.035 51.5315 193.591 51.3245C193.366 51.1966 193.178 51.0266 193.041 50.8275C192.904 50.6283 192.821 50.405 192.799 50.1745C192.812 49.7375 193.162 49.565 193.605 49.7835Z" fill="#727379"/>
<path d="M194.545 49.128C194.973 49.3704 195.328 49.6955 195.583 50.077C195.837 50.4585 195.983 50.8858 196.009 51.3245V60.5245C196.009 61.318 195.338 61.6745 194.532 61.249L173.495 50.8415C173.065 50.6028 172.707 50.2804 172.45 49.9007C172.193 49.5209 172.045 49.0946 172.017 48.6565V39.4565C172.017 38.663 172.689 38.3065 173.508 38.732L194.545 49.128ZM189.172 49.128C189.615 49.3465 189.964 49.128 189.978 48.7485C189.959 48.5173 189.877 48.2931 189.74 48.0935C189.602 47.8939 189.412 47.7244 189.185 47.5985C188.742 47.38 188.393 47.5985 188.393 47.978C188.408 48.2085 188.487 48.4328 188.622 48.6326C188.757 48.8323 188.946 49.002 189.172 49.128ZM193.645 51.3475C194.088 51.5545 194.438 51.3475 194.438 50.9565C194.422 50.7259 194.344 50.5016 194.208 50.3019C194.073 50.1021 193.885 49.9324 193.659 49.8065C193.215 49.588 192.866 49.8065 192.853 50.186C192.875 50.4165 192.957 50.6397 193.095 50.8389C193.232 51.0381 193.42 51.208 193.645 51.336V51.3475ZM191.415 50.186C191.845 50.4045 192.208 50.186 192.208 49.8065C192.192 49.5746 192.112 49.3494 191.974 49.1494C191.836 48.9494 191.645 48.7804 191.415 48.6565C190.985 48.438 190.623 48.6565 190.623 49.036C190.638 49.2678 190.719 49.493 190.856 49.693C190.994 49.893 191.186 50.062 191.415 50.186Z" fill="#1F232B"/>
<path d="M191.361 48.6794C191.591 48.8034 191.782 48.9724 191.92 49.1724C192.058 49.3724 192.138 49.5976 192.154 49.8294C192.154 50.2549 191.791 50.4274 191.361 50.2089C191.132 50.085 190.94 49.916 190.803 49.716C190.665 49.516 190.585 49.2908 190.569 49.0589C190.569 48.6334 190.932 48.4609 191.361 48.6794Z" fill="#727379"/>
<path d="M189.131 47.5754C189.359 47.7014 189.549 47.8709 189.686 48.0705C189.824 48.2701 189.905 48.4943 189.924 48.7254C189.924 49.1509 189.561 49.3234 189.118 49.1049C188.892 48.979 188.704 48.8093 188.568 48.6095C188.433 48.4097 188.354 48.1855 188.339 47.9549C188.339 47.5294 188.688 47.3569 189.131 47.5754Z" fill="#727379"/>
<path d="M179.043 48.4034H178.976H178.425H178.317H178.197L176.853 49.0359C176.999 48.9625 177.17 48.9341 177.337 48.9554C177.547 48.9724 177.749 49.0315 177.928 49.1279L185.088 52.6584L186.351 52.0259L179.043 48.4034Z" fill="#7945DC"/>
<path d="M187.681 54.05V53.6015V53.544V53.475V53.406V53.3485V53.2795V53.222V53.153V53.0725C187.685 53.0458 187.685 53.0187 187.681 52.992L187.573 52.831C187.534 52.7975 187.503 52.7586 187.479 52.716V52.647C187.479 52.647 187.479 52.647 187.412 52.5895H187.345H187.278H187.21H187.143L185.88 53.222C186.089 53.3334 186.279 53.4688 186.445 53.6245C186.619 53.79 186.772 53.9712 186.901 54.165C187.035 54.3559 187.139 54.5607 187.21 54.7745C187.29 54.9745 187.33 55.1842 187.331 55.3955V59.4435L188.594 58.811V54.05H187.681Z" fill="#653AB8"/>
<path d="M184.94 52.5665C185.369 52.809 185.726 53.1338 185.982 53.5151C186.239 53.8964 186.388 54.3237 186.418 54.763V58.811L176.276 53.8085V49.749C176.276 48.944 176.947 48.599 177.78 49.036L184.94 52.5665Z" fill="#4B2B89"/>
<path d="M225.214 115.379C225.5 115.417 225.771 115.514 226.005 115.66C226.238 115.806 226.428 115.997 226.557 116.219C226.617 116.332 226.646 116.455 226.642 116.579C226.639 116.703 226.603 116.824 226.537 116.934C226.471 117.045 226.377 117.141 226.262 117.216C226.147 117.292 226.014 117.344 225.872 117.369C226.238 117.321 226.612 117.37 226.943 117.51C227.275 117.65 227.548 117.874 227.726 118.152C227.903 118.43 227.977 118.747 227.936 119.062C227.895 119.377 227.742 119.673 227.498 119.91C227.893 119.814 228.315 119.841 228.689 119.986C229.063 120.132 229.364 120.386 229.54 120.704C229.666 121.018 229.676 121.358 229.568 121.677C229.459 121.996 229.239 122.279 228.935 122.486C229.339 122.499 229.737 122.565 230.117 122.682C230.325 122.763 230.497 122.897 230.61 123.066C230.724 123.236 230.772 123.431 230.749 123.625C230.705 123.758 230.626 123.881 230.519 123.984C230.412 124.088 230.28 124.169 230.131 124.223C229.829 124.317 229.512 124.372 229.19 124.384C228.809 124.441 228.423 124.476 228.035 124.487C227.184 124.537 226.329 124.439 225.523 124.2C224.5 123.722 223.678 122.982 223.172 122.084C222.413 121.053 221.779 119.959 221.278 118.818C220.848 117.84 220.257 116.311 221.533 115.598C221.997 115.366 222.528 115.25 223.065 115.264C223.784 115.218 224.507 115.257 225.214 115.379Z" fill="#FFCEA9"/>
<path d="M226.302 116.069C226.229 116.268 226.221 116.48 226.277 116.683C226.334 116.885 226.454 117.071 226.625 117.219C226.78 117.301 226.959 117.344 227.142 117.344C227.324 117.344 227.503 117.301 227.659 117.219C227.959 117.053 228.223 116.843 228.438 116.598C228.843 116.207 229.19 115.774 229.473 115.31C229.916 114.505 229.849 112.838 228.358 113.148C226.866 113.459 226.504 115.092 226.302 116.069Z" fill="#FFCEA9"/>
<path d="M338.916 513.291C342.583 515.855 348.01 513.521 348.319 513.751C352.641 517.176 357.17 520.405 361.887 523.422C364.171 524.963 367.744 527.022 367.1 529.989C365.944 535.29 356.03 533.657 352.323 532.036C348.615 530.414 345.525 527.735 341.979 525.849C339.453 524.503 336.982 523.813 336.605 521.076C336.283 519.432 338.258 513.233 338.916 513.291Z" fill="#C1C4D3"/>
<path d="M336.565 519.984C337.049 522.594 339.507 523.319 342.006 524.584C345.606 526.504 348.722 529.264 352.511 530.874C355.963 532.381 364.601 533.864 367.006 530.081C365.662 535.187 355.95 533.588 352.229 531.978C348.507 530.368 345.431 527.677 341.885 525.791C339.359 524.446 336.887 523.756 336.511 521.019C336.485 520.673 336.503 520.326 336.565 519.984Z" fill="#A7ABB7"/>
<path d="M370.767 503.148C374.434 505.712 380.869 502.906 381.138 503.148C384.954 506.465 388.991 509.59 393.228 512.509C395.525 514.05 399.098 516.12 398.44 519.075C397.285 524.377 387.371 522.755 383.663 521.134C379.956 519.512 376.866 516.821 373.333 514.935C370.807 513.601 368.322 512.9 367.959 510.174C367.731 508.518 370.149 503.079 370.767 503.148Z" fill="#C1C4D3"/>
<path d="M368.08 509.45C368.564 512.06 371.022 512.785 373.521 514.107C377.121 516.028 380.238 518.788 384.026 520.409C387.478 521.904 396.116 523.388 398.521 519.604C397.177 524.71 387.465 523.112 383.744 521.502C380.023 519.892 376.946 517.201 373.413 515.315C370.888 513.969 368.403 513.279 368.04 510.542C368.01 510.178 368.024 509.812 368.08 509.45Z" fill="#A7ABB7"/>
<path d="M395.35 329.371C395.35 329.371 395.243 334.5 395.968 347.185C396.234 356.678 395.745 366.176 394.504 375.613C393.409 383.078 391.033 390.363 387.452 397.233C384.765 386.365 387.868 384.468 387.868 384.468L386.377 361.399C386.377 361.399 387.881 339.135 387.277 331.223C386.887 326.197 395.35 329.371 395.35 329.371Z" fill="#FFCEA9"/>
<path d="M338.795 397.118C338.97 401.879 340.703 422.544 341.482 433.481C342.261 444.417 342.435 457.815 342.435 457.815C342.435 457.815 340.232 465.784 338.808 475.157C337.384 484.529 338.808 514.073 338.808 514.073C340.212 514.842 341.844 515.251 343.51 515.251C345.177 515.251 346.808 514.842 348.212 514.073C348.212 514.073 354.096 490.417 356.823 479.757C359.55 469.096 360.02 462.955 361.363 456.354C363.069 448.362 366.737 411.067 366.737 411.067L368.215 411.136L372.137 453.238C370.929 456.342 370.101 459.544 369.665 462.794C368.591 469.694 370.794 504.194 370.794 504.194C372.363 504.942 374.143 505.305 375.937 505.242C377.731 505.179 379.471 504.693 380.963 503.838C380.963 503.838 390.917 458.102 390.917 451.145C390.917 446.545 390.004 385.905 390.004 385.905L338.795 397.118Z" fill="#916F5D"/>
<path d="M378.935 323.345C378.701 325.216 377.621 326.933 375.925 328.129C373.728 329.819 371.169 331.127 368.389 331.982C364.534 333.235 360.611 333.661 358.556 332.867C353.733 330.97 343.779 322.598 345.364 321.517C346.036 321.045 347.379 320.229 348.723 319.378C348.991 319.182 349.287 318.998 349.555 318.826C350.526 318.237 351.426 317.567 352.242 316.825C352.36 316.721 352.448 316.595 352.497 316.457C352.753 315.548 352.148 305.175 352.148 305.175C352.148 305.175 366.092 309.315 371.815 310.764L372.433 310.914C372.591 310.96 372.753 310.998 372.916 311.029C373.27 311.119 373.628 311.192 373.991 311.247C376.328 311.535 379.203 316.917 378.935 323.345Z" fill="#FFCEA9"/>
<path d="M390.917 341.481C390.702 352.486 390.917 386.101 390.917 386.101C390.917 386.101 389.198 393.219 378.102 398.509C367.006 403.799 358.771 404.317 351.235 402.822C345.028 401.58 339.897 399.705 337.801 395.853C338.352 388.136 342.382 368.011 340.864 358.305C339.346 348.599 336.968 341.366 336.35 333.523C335.732 325.68 337.559 325.841 342.153 323.046C345.163 321.206 347.325 320.011 348.709 319.286C349.072 319.102 349.367 318.941 349.623 318.826C350.455 318.412 350.832 318.251 350.832 318.251C350.832 318.251 359.617 329.475 371.882 330.533C375.751 327.267 376.114 315.652 370.754 311.937C370.754 311.937 371.452 311.477 372.473 310.914L372.701 310.787C374.434 309.879 377.014 308.798 379.042 309.2C383.035 311.046 386.092 314.089 387.626 317.745C389.816 323.656 391.079 330.475 390.917 341.481Z" fill="#EDEDED"/>
<path d="M345.834 401.637C344.021 399.889 340.864 390.137 339.118 384.054C337.379 377.156 337.029 370.054 338.083 363.055C339.709 354.694 344.169 343.125 345.458 338.33C346.748 333.534 345.055 331.51 342.57 329.567C339.641 327.267 335.302 327.98 332.495 334.638C328.801 343.857 326.318 353.4 325.093 363.089C324.441 370.301 325.18 377.555 327.283 384.56C329.163 391.057 331.904 395.818 335.437 401.81C336.39 403.443 338.58 407.985 339.991 411.286C341.401 414.586 347.513 403.236 345.834 401.637Z" fill="#FFCEA9"/>
<path d="M375.925 328.129C375.458 329.543 374.601 330.841 373.427 331.913L372.661 332.568L371.586 332.476C370.507 332.383 369.438 332.217 368.389 331.982C358.193 329.682 350.59 321.551 348.722 319.332C348.687 319.307 348.66 319.276 348.642 319.24C349.005 319.056 349.3 318.895 349.555 318.78C350.526 318.191 351.426 317.521 352.242 316.779C353.451 318.193 361.202 326.91 370.861 328.382C372.132 326.041 372.674 323.458 372.433 320.884C372.231 317.434 371.089 314.651 369.276 313.409L370.713 311.891L371.815 310.741L372.151 310.396L372.661 310.764C372.756 310.837 372.842 310.918 372.916 311.006C375.281 313.087 376.758 316.56 376.946 320.712C377.116 323.217 376.771 325.727 375.925 328.129Z" fill="#C1C4D3"/>
<path d="M379.539 289.708C378.088 281.658 371.318 275.563 361.619 276.023C357.716 276.194 353.975 277.41 350.923 279.5C347.872 281.59 345.664 284.448 344.613 287.67C343.562 290.892 343.72 294.316 345.065 297.457C346.41 300.598 348.873 303.298 352.108 305.175C352.453 306.393 352.957 307.574 353.612 308.694C357.051 312.144 367.422 314.249 370.404 313.881C374.233 313.421 376.302 312.052 378.129 308.464C381.339 302.151 380.332 293.698 379.539 289.708Z" fill="#FFCEA9"/>
<path d="M352.108 305.175L353.008 298.149C353.008 298.149 346.291 283.291 362.143 286.143C372.594 288.029 375.227 288.845 378.411 282.831C381.595 276.816 370.351 271.423 357.038 272.929C352.448 273.341 348.206 275.214 345.153 278.177C342.1 281.139 340.459 284.976 340.555 288.926C340.904 293.342 342.274 302.289 352.108 305.175Z" fill="#3A2C6D"/>
<path d="M348.843 332.672C348.843 332.672 346.882 342.274 345.27 347.484C345.079 348.634 344.622 349.741 343.927 350.738C333.704 352.854 325.12 345.506 325.12 345.506C325.12 345.506 325.549 344.126 326.329 342.056C328.626 335.892 334.026 323.587 340.434 323.403C348.857 323.15 348.843 332.672 348.843 332.672Z" fill="#D5D7E2"/>
<path d="M398.36 334.178C396.479 336.478 390.877 335.834 390.877 335.834C390.877 335.834 390.877 334.972 390.716 333.592C390.353 329.555 389.238 321.057 386.216 316.687C384.235 313.906 381.796 311.385 378.975 309.2C388.875 310.132 395.767 324.909 397.782 331.591C398.049 332.44 398.242 333.305 398.36 334.178Z" fill="#D5D7E2"/>
<path d="M451.919 364.147C456.285 365.228 458.784 369.357 462.666 378.2C466.548 387.044 467.784 399.728 467.274 403.144C466.038 411.481 462.021 417.956 452.269 424.718L447.567 417.45C447.567 417.45 457.105 410.239 458.085 401.902C458.636 397.221 452.215 381.455 452.215 381.029C452.215 380.604 451.919 364.147 451.919 364.147Z" fill="#FFCEA9"/>
<path d="M413.754 556.289C412.283 556.679 410.729 556.789 409.203 556.612C407.676 556.436 406.213 555.976 404.915 555.266C402.537 555.323 388.54 550.585 386.793 554.564C385.248 558.014 390.823 561.28 393.846 561.901C400.375 563.258 405.211 566.053 407.83 566.501C409.791 566.858 412.317 567.088 413.875 565.765C415.769 564.213 415.608 558.371 413.754 556.289Z" fill="#38226D"/>
<path d="M407.844 565.558C405.157 565.087 400.388 562.292 393.859 560.958C391.347 560.441 387.022 558.095 386.592 555.289C386.001 558.497 391.065 561.349 393.859 561.924C400.388 563.281 405.224 566.076 407.844 566.524C409.805 566.881 412.33 567.111 413.889 565.788C414.299 565.411 414.594 564.953 414.748 564.454C413.777 565.085 412.647 565.513 411.448 565.705C410.25 565.897 409.016 565.846 407.844 565.558Z" fill="#9C73FF"/>
<path d="M449.3 540.5C448.02 540.873 446.654 540.979 445.317 540.806C443.98 540.634 442.711 540.19 441.616 539.511C439.319 539.568 425.025 535.003 423.333 538.832C421.841 542.19 427.242 545.295 430.117 545.893C436.417 547.204 441.065 549.884 443.55 550.344C445.431 550.677 447.876 550.907 449.367 549.642C451.207 548.101 451.06 542.489 449.3 540.5Z" fill="#38226D"/>
<path d="M443.59 549.401C441.065 548.941 436.417 546.261 430.157 544.95C427.752 544.456 423.588 542.19 423.171 539.499C422.607 542.593 427.47 545.33 430.157 545.882C436.457 547.193 441.105 549.872 443.59 550.332C445.471 550.666 447.916 550.896 449.407 549.631C449.793 549.26 450.077 548.82 450.24 548.343C449.303 548.947 448.214 549.357 447.06 549.541C445.907 549.725 444.719 549.677 443.59 549.401Z" fill="#9C73FF"/>
<path d="M454.055 510.105C454.079 505.51 453.17 500.945 451.368 496.616C451.368 496.616 453.195 478.147 454.566 466.026C456.594 448.143 459.805 446.372 458.905 435.516C458.058 425.442 451.368 418.899 449.622 412.091L415.528 414.391C415.528 414.391 412.572 422.671 408.73 439.15C404.888 455.63 404.7 475.226 405.023 501.193C405.117 507.874 403.679 513.693 404.149 530.357C404.458 541.569 405.197 555.3 405.197 555.3C410.195 558.957 413.647 556.255 413.647 556.255C413.647 556.255 422.379 523.066 423.668 515.441C425.012 507.552 422.486 502.791 422.486 502.791C422.486 502.791 425.039 492.361 426.933 484.161C429.257 474.156 434.993 452.536 434.993 452.536C434.993 452.536 434.012 485.748 435.705 492.28C437.398 498.812 437.707 504.528 439.144 513.429C440.89 524.193 441.683 539.936 441.683 539.936C446.882 542.765 449.179 540.592 449.179 540.592C449.179 540.592 454.055 519.512 454.055 510.105Z" fill="#FFCEA9"/>
<path d="M449.501 412.091C453.075 415.207 458.972 424.741 458.972 439.15C458.972 455.377 456.205 452.088 454.942 469.947L453.598 487.818C453.598 487.818 425.106 499.456 404.794 488.646C402.981 485.277 405.479 447.718 409.026 434.366C412.572 421.015 415.057 414.471 415.057 414.471C415.057 414.471 441.24 420.509 449.501 412.091Z" fill="#C1C4D3"/>
<path d="M449.904 363.975C442.637 363.607 441.938 364.63 441.36 362.434C441.159 361.64 440.756 356.166 440.756 356.166C441.42 355.435 442.026 354.667 442.569 353.866C445.886 352.127 448.482 349.542 449.992 346.473C451.502 343.405 451.85 340.008 450.987 336.762C450.123 333.515 448.093 330.582 445.18 328.376C442.268 326.169 438.62 324.8 434.751 324.461C425.119 323.598 418.04 329.394 416.146 337.341C415.125 341.274 414.077 349.301 416.925 355.741C418.537 359.386 420.028 361.928 423.87 361.801C425.149 361.699 426.416 361.507 427.658 361.226C427.877 362.752 427.949 364.291 427.873 365.826C427.779 367.413 428.088 368.218 424.448 370.127C420.807 372.036 429.955 375.992 435.92 375.601C441.884 375.21 448.601 372.151 450.442 368.828C452.483 365.09 453.316 364.159 449.904 363.975Z" fill="#FFCEA9"/>
<path d="M455.237 391.529C455.237 391.529 463.459 389.942 467.22 386.825C467.22 386.825 462.33 373.646 459.16 370.334C455.99 367.022 453.021 388.286 453.021 388.286L455.237 391.529Z" fill="#EDEDED"/>
<path d="M442.69 363.848C444.034 365.274 444.181 367.08 438.996 368.195C435.234 369.118 431.211 368.853 427.658 367.448C423.575 368.927 419.651 370.709 415.931 372.772C411.457 385.215 415.084 386.825 413.244 395.772C413.956 400.269 414.829 411.872 415.044 414.471C424.931 420.382 445.001 418.358 449.501 412.102C449.583 410.007 449.812 407.918 450.186 405.846C454.915 390.896 458.596 386.906 457.279 375.613C456.527 369.161 455.936 365.907 451.906 364.182C449.501 363.503 444.155 363.768 442.69 363.848Z" fill="#F4F4F4"/>
<path d="M415.635 391.195C413.066 395.271 411.573 399.78 411.259 404.403C410.946 409.027 411.821 413.653 413.822 417.956L410.396 429.237C410.396 429.237 397.218 411.987 400.992 400.487C404.767 388.987 406.702 385.652 406.702 385.652L416.374 384.652L415.635 391.195Z" fill="#FFCEA9"/>
<path d="M419.222 392.587C413.499 391.879 408.204 389.584 404.149 386.055L413.271 375.222C413.271 375.222 418.402 369.667 425.186 372.818C425.186 372.818 430.305 373.278 425.186 382.444C420.068 391.609 419.222 392.587 419.222 392.587Z" fill="#EDEDED"/>
<path d="M414.386 332.66C415.205 327.382 421.559 326.335 423.91 326.715C427.083 324.856 430.932 324.04 434.751 324.415C443.402 325.185 449.071 329.981 451.691 337.41C452.9 340.193 453.531 344.252 454.243 348.749C456.863 365.263 463.862 378.361 457.306 383.249C450.75 388.136 432.83 391.299 425.348 388.125C417.865 384.951 431.514 356.615 416.669 340.814C413.204 337.157 412.881 334.535 414.386 332.66Z" fill="#3A4151"/>
<path d="M165.932 314.962C165.932 314.962 146.95 309.982 140.811 309.982C131.77 297.85 114.185 283.981 114.185 283.981L110.478 288.581C110.478 288.581 124.18 314.019 133.704 319.056C143.229 324.093 165.945 327.83 165.945 327.83L165.932 314.962Z" fill="#FFCEA9"/>
<path d="M130.44 285.959V295.251C130.455 295.366 130.455 295.481 130.44 295.596C130.425 295.695 130.393 295.792 130.346 295.883C130.346 295.952 130.252 296.01 130.212 296.067V296.125C130.151 296.181 130.083 296.231 130.01 296.274L131.045 295.734C131.12 295.697 131.188 295.651 131.246 295.596C131.24 295.577 131.24 295.557 131.246 295.538V295.469L131.327 295.354V295.274C131.328 295.247 131.328 295.22 131.327 295.193C131.327 295.193 131.327 295.136 131.327 295.113C131.327 295.113 131.327 295.113 131.327 295.044C131.327 294.975 131.327 294.986 131.327 294.963V294.814V285.533L130.44 285.959Z" fill="#212531"/>
<path d="M131.475 285.361V285.2C131.467 285.173 131.467 285.146 131.475 285.119C131.475 285.119 131.475 285.119 131.475 285.05C131.468 285.028 131.468 285.004 131.475 284.981C131.475 284.981 131.475 284.924 131.475 284.889C131.475 284.855 131.475 284.889 131.475 284.809C131.469 284.782 131.469 284.755 131.475 284.728V284.659C131.467 284.633 131.467 284.605 131.475 284.579V284.498C131.475 284.498 131.475 284.498 131.475 284.429V284.349V284.268V284.188C131.475 284.188 131.475 284.13 131.475 284.096L131.407 283.992L131.273 283.797L131.166 283.659L131.085 283.567V283.486L131.018 283.417V283.348L130.937 283.279V283.21L130.857 283.153H130.776H130.695H130.615L109.403 272.274H109.336H109.255H109.175H107.469H107.348L107.213 272.343L106.179 272.872C106.258 272.83 106.344 272.799 106.434 272.78C106.532 272.768 106.632 272.768 106.73 272.78L107.052 272.849C107.178 272.889 107.3 272.939 107.415 272.998L128.613 283.866C128.743 283.932 128.864 284.009 128.976 284.096C129.09 284.182 129.198 284.274 129.298 284.372C129.408 284.474 129.512 284.582 129.607 284.694C129.7 284.809 129.785 284.928 129.862 285.05C129.943 285.177 130.01 285.303 130.077 285.43C130.148 285.35 130.225 285.273 130.306 285.2C130.306 285.338 130.386 285.464 130.413 285.602C130.427 285.729 130.427 285.856 130.413 285.982L131.448 285.453L131.475 285.361Z" fill="#1F232D"/>
<path d="M128.653 283.21C129.18 283.519 129.615 283.927 129.925 284.404C130.236 284.881 130.412 285.414 130.44 285.959V295.251C130.44 296.263 129.634 296.665 128.64 296.159L107.469 285.28C106.94 284.975 106.504 284.567 106.196 284.089C105.887 283.611 105.716 283.077 105.695 282.532V273.251C105.695 272.239 106.501 271.837 107.496 272.343L128.653 283.21Z" fill="#171A22"/>
<path d="M127.619 284.165C127.842 284.293 128.027 284.463 128.16 284.663C128.293 284.862 128.37 285.086 128.385 285.315C128.385 285.752 128.036 285.924 127.619 285.706C127.396 285.577 127.21 285.407 127.075 285.208C126.94 285.009 126.859 284.786 126.84 284.556C126.8 284.119 127.135 283.946 127.619 284.165Z" fill="#727379"/>
<path d="M128.479 283.509C128.906 283.754 129.26 284.082 129.512 284.465C129.764 284.849 129.907 285.278 129.93 285.717V295.009C129.93 295.814 129.285 296.159 128.479 295.734L107.925 285.2C107.502 284.952 107.152 284.624 106.903 284.241C106.653 283.858 106.511 283.43 106.488 282.992V273.711C106.488 272.895 107.146 272.561 107.939 272.975L128.479 283.509ZM123.199 283.509C123.629 283.728 123.979 283.509 123.979 283.118C123.959 282.89 123.88 282.668 123.747 282.469C123.615 282.271 123.432 282.099 123.213 281.968C122.783 281.75 122.434 281.968 122.434 282.359C122.451 282.588 122.528 282.811 122.661 283.01C122.794 283.21 122.978 283.38 123.199 283.509ZM127.619 285.729C128.036 285.947 128.385 285.729 128.385 285.338C128.37 285.109 128.293 284.885 128.16 284.686C128.027 284.486 127.842 284.316 127.619 284.188C127.189 283.969 126.853 284.188 126.84 284.567C126.859 284.797 126.94 285.02 127.075 285.219C127.21 285.419 127.396 285.589 127.619 285.717V285.729ZM125.429 284.579C125.859 284.797 126.209 284.579 126.209 284.188C126.192 283.959 126.114 283.736 125.981 283.537C125.848 283.338 125.664 283.167 125.443 283.038C125.013 282.819 124.664 283.038 124.664 283.429C124.684 283.657 124.763 283.879 124.895 284.078C125.027 284.277 125.21 284.448 125.429 284.579Z" fill="#1F232B"/>
<path d="M125.389 283.038C125.611 283.167 125.795 283.338 125.927 283.537C126.06 283.736 126.138 283.959 126.155 284.188C126.155 284.625 125.806 284.797 125.376 284.579C125.156 284.448 124.974 284.277 124.841 284.078C124.709 283.879 124.63 283.657 124.61 283.429C124.61 283.003 124.932 282.819 125.389 283.038Z" fill="#727379"/>
<path d="M123.213 281.922C123.432 282.053 123.615 282.224 123.747 282.423C123.88 282.622 123.959 282.844 123.979 283.072C123.979 283.509 123.629 283.682 123.199 283.463C122.978 283.334 122.794 283.164 122.661 282.964C122.528 282.765 122.451 282.542 122.434 282.313C122.434 281.876 122.783 281.75 123.213 281.922Z" fill="#727379"/>
<path d="M110.531 288.558C110.531 288.558 102.7 283.958 102.471 281.175C102.305 279.223 102.625 277.263 103.412 275.425C103.748 274.597 103.949 273.585 104.983 273.182C105.318 273.095 105.673 273.081 106.015 273.141C106.358 273.202 106.677 273.334 106.945 273.527C108.034 274.12 109.084 274.765 110.088 275.459C111.432 276.299 112.775 277.081 114.226 277.886C114.803 278.219 117.96 279.691 117.114 280.496C115.529 281.934 112.842 280.059 111.499 279.45C109.709 278.719 108.019 277.821 106.461 276.77C106.461 276.851 106.555 277.219 106.649 277.368C106.795 277.619 106.98 277.851 107.2 278.058C107.668 278.436 108.186 278.764 108.745 279.036C109.578 279.496 110.478 279.91 111.432 280.335C112.564 280.773 113.652 281.293 114.682 281.888C114.781 281.958 114.861 282.046 114.915 282.145C114.969 282.245 114.998 282.353 114.998 282.463C114.998 282.573 114.969 282.681 114.915 282.78C114.861 282.88 114.781 282.968 114.682 283.038C114.293 283.36 113.487 283.256 112.976 283.176C112.466 283.095 111.727 282.842 111.096 282.67C110.193 282.405 109.321 282.07 108.49 281.669C107.785 281.299 107.108 280.892 106.461 280.45C106.502 280.658 106.565 280.862 106.649 281.06C106.881 281.351 107.167 281.607 107.496 281.819C108.046 282.221 108.651 282.543 109.215 282.969C110.357 283.739 111.902 283.866 113.044 284.659C113.125 284.717 113.191 284.789 113.236 284.87C113.281 284.952 113.304 285.041 113.304 285.131C113.304 285.221 113.281 285.31 113.236 285.392C113.191 285.473 113.125 285.545 113.044 285.602C112.761 285.821 112.157 285.798 111.781 285.821C110.75 285.74 109.746 285.49 108.825 285.085C108.229 284.877 107.654 284.627 107.106 284.337C106.718 284.168 106.349 283.967 106.004 283.739C106.448 284.429 112.466 287.868 112.466 287.868L110.531 288.558Z" fill="#FFCEA9"/>
<path d="M153.613 326.669C153.613 326.669 150.604 317.009 157.536 310.753C159.054 310.12 177.431 315.836 177.431 315.836C177.431 315.836 186.7 320.378 182.374 326.335C178.049 332.292 153.613 326.669 153.613 326.669Z" fill="#EDEDED"/>
<path d="M214.266 508.829C210.746 511.278 205.547 509.036 205.292 509.266C201.157 512.547 196.821 515.637 192.302 518.523C190.099 520.007 186.687 521.973 187.304 524.825C188.406 529.897 197.904 528.333 201.49 526.78C205.077 525.228 207.992 522.652 211.391 520.858C213.809 519.57 216.187 518.903 216.563 516.258C216.791 514.705 214.937 508.771 214.266 508.829Z" fill="#38226D"/>
<path d="M216.523 515.2C216.052 517.707 213.702 518.397 211.31 519.662C207.858 521.502 204.822 524.147 201.249 525.699C197.931 527.125 189.669 528.551 187.345 524.929C188.608 529.828 197.944 528.287 201.49 526.746C205.037 525.205 207.992 522.617 211.391 520.823C213.809 519.535 216.187 518.868 216.563 516.223C216.591 515.882 216.577 515.539 216.523 515.2Z" fill="#9C73FF"/>
<path d="M183.718 499.1C180.198 501.561 174.032 498.881 173.763 499.1C170.11 502.284 166.239 505.279 162.17 508.07C159.967 509.553 156.542 511.52 157.173 514.372C158.275 519.455 167.772 517.891 171.359 516.338C174.946 514.786 177.861 512.21 181.259 510.404C183.677 509.116 186.055 508.449 186.431 505.804C186.727 504.252 184.336 499.1 183.718 499.1Z" fill="#38226D"/>
<path d="M186.324 505.137C185.854 507.644 183.503 508.334 181.112 509.611C177.659 511.439 174.623 514.084 171.05 515.637C167.732 517.075 159.484 518.5 157.16 514.866C158.422 519.765 167.745 518.236 171.292 516.695C174.838 515.154 177.807 512.566 181.192 510.761C183.61 509.473 185.988 508.806 186.364 506.161C186.392 505.82 186.379 505.477 186.324 505.137Z" fill="#9C73FF"/>
<path d="M214.467 397.578C214.306 402.178 212.64 421.923 211.901 432.4C211.163 442.876 210.988 455.722 210.988 455.722C210.988 455.722 213.11 463.358 214.467 472.328C215.824 481.298 214.467 509.611 214.467 509.611C213.123 510.35 211.558 510.743 209.96 510.743C208.362 510.743 206.798 510.35 205.453 509.611C205.453 509.611 199.825 486.956 197.205 476.744C194.586 466.532 194.142 460.644 192.799 454.319C191.16 446.66 187.627 410.929 187.627 410.929L186.284 410.998L182.509 451.329C183.675 454.316 184.472 457.399 184.887 460.529C185.907 467.107 183.812 500.158 183.812 500.158C182.305 500.87 180.599 501.214 178.879 501.154C177.159 501.093 175.492 500.629 174.059 499.813C174.059 499.813 164.656 456.044 164.656 449.374C164.656 444.969 165.542 386.871 165.542 386.871L214.467 397.578Z" fill="#8C50FF"/>
<path d="M201.705 309.476C201.705 309.476 201.114 319.424 201.37 320.298C201.625 321.172 206.743 324.093 208.18 325.139C209.618 326.186 200.12 334.201 195.526 336.018C190.932 337.835 176.262 333.051 176.007 326.899C175.752 320.746 178.519 315.571 180.762 315.295C183.006 315.019 201.705 309.476 201.705 309.476Z" fill="#FFCEA9"/>
<path d="M203.008 322C203.008 322 194.586 332.752 182.858 333.764C179.15 330.636 178.828 319.504 183.946 315.951C183.946 315.951 179.231 312.696 176.007 313.329C172.541 315.124 169.961 317.942 168.753 321.252C165.756 328.641 164.349 336.434 164.602 344.252C164.803 354.798 164.602 387.009 164.602 387.009C164.602 387.009 166.254 393.817 176.88 398.889C187.506 403.96 195.405 404.455 202.619 403.017C208.57 401.867 213.487 400.039 215.528 396.336C215.005 388.953 211.149 369.667 212.587 360.375C214.024 351.083 216.321 344.137 216.912 336.628C217.503 329.118 215.757 329.268 211.351 326.588C208.701 324.891 205.913 323.358 203.008 322Z" fill="#F4F4F4"/>
<path d="M195.942 405.57C197.836 404.616 199.166 403.271 201.961 402.12C204.405 401.12 206.125 400.683 207.818 399.073C209.51 397.463 211.633 390.896 213.46 384.709C215.212 377.751 215.562 370.586 214.494 363.526C212.855 355.097 208.355 343.424 207.065 338.594C205.776 333.764 207.468 331.694 209.98 329.762C212.936 327.462 217.315 328.152 220.15 334.868C223.859 344.186 226.337 353.829 227.538 363.618C228.203 370.883 227.463 378.192 225.348 385.25C223.454 391.805 220.687 396.612 217.127 402.638C216.16 404.282 215.905 405.697 214.44 409.02C213.061 412.356 210.756 415.356 207.724 417.76C205.037 419.635 203.693 419.957 203.076 419.658C202.458 419.359 202.337 418.508 203.438 417.542C205.316 416.101 206.877 414.383 208.046 412.47C208.046 412.47 205.762 414.77 204.258 415.92C202.917 417.023 201.413 417.97 199.784 418.738C198.186 419.451 195.835 418.393 196.91 417.381C197.984 416.369 199.153 415.84 201.343 413.931C202.516 412.951 203.549 411.854 204.419 410.665C202.866 411.829 201.209 412.887 199.462 413.827C198.097 414.655 196.484 415.13 194.814 415.196C193.954 415.196 192.826 414.241 194.357 413.149C195.889 412.056 197.984 411.412 200.268 409.181C201.934 407.548 202.847 406.203 202.337 406.203C201.826 406.203 200.993 407.226 198.884 407.905C196.775 408.583 194.545 408.215 194.209 407.238C193.874 406.26 194.062 406.513 195.942 405.57Z" fill="#FFCEA9"/>
<path d="M175.429 294.664C176.773 286.948 183.315 281.106 192.611 281.554C194.965 281.66 197.272 282.163 199.399 283.033C201.527 283.904 203.432 285.125 205.007 286.627C206.582 288.129 207.795 289.882 208.577 291.787C209.359 293.691 209.694 295.708 209.564 297.723C209.412 300.066 208.628 302.346 207.274 304.385C205.92 306.424 204.032 308.167 201.759 309.476C201.436 310.648 200.953 311.782 200.322 312.857C197.044 316.146 187.09 318.182 184.201 317.825C180.534 317.377 178.546 316.066 176.799 312.639C173.71 306.578 174.637 298.482 175.429 294.664Z" fill="#FFCEA9"/>
<path d="M201.705 309.476L200.859 302.749C200.859 302.749 207.28 288.512 192.1 291.249C182.079 293.054 179.567 293.836 176.517 288.086C173.468 282.336 184.228 277.15 196.99 278.587C201.389 278.982 205.454 280.776 208.38 283.616C211.306 286.455 212.879 290.132 212.788 293.917C212.452 298.149 211.136 306.716 201.705 309.476Z" fill="#3A4151"/>
<path d="M227.686 348.116C227.686 348.116 219.397 355.166 209.604 353.13C208.261 352.325 204.835 335.88 204.835 335.88C204.835 335.88 204.835 326.749 213.016 326.979C221.197 327.209 227.686 348.116 227.686 348.116Z" fill="#EDEDED"/>
<path d="M226.786 307.211C228.707 304.589 243.296 302.852 248.105 313.444C249.918 317.457 249.636 327.715 251.168 334.144C252.699 340.572 256.273 344.252 257.562 349.485C258.852 354.717 256.756 363.48 242.033 365.033C227.31 366.585 215.972 362.146 212.479 358.133C208.986 354.119 208.919 345.575 212.479 340.986C216.039 336.398 218.833 332.672 218.753 326.692L226.786 307.211Z" fill="#3A2C6D"/>
<path d="M209.309 351.52C209.309 351.52 205.843 372.416 212.385 387.274C218.927 402.132 217.114 383.444 217.114 383.444L215.528 379.005C215.528 379.005 214.185 361.928 214.763 357.73C215.34 353.533 215.179 349.945 215.528 349.611C215.878 349.278 214.185 348.611 213.54 348.519C212.895 348.427 209.309 351.52 209.309 351.52Z" fill="#FFCEA9"/>
<path d="M236.431 305.382C236.431 305.382 225.429 302.68 218.779 307.763C216.578 309.494 214.975 311.709 214.145 314.168C213.316 316.626 213.293 319.232 214.078 321.701C214.964 324.668 216.764 328.727 219.451 328.957C222.138 329.187 236.431 305.382 236.431 305.382Z" fill="#3A2C6D"/>
<path d="M240.636 331.05C240.636 331.05 239.91 341.538 240.139 342.309C240.367 343.079 244.948 343.827 246.224 344.735C247.5 345.644 239.507 356.293 235.477 357.868C231.447 359.444 218.914 355.419 218.014 350.094C217.208 345.184 221.587 341.366 223.28 340.032C224.428 339.945 225.581 339.922 226.732 339.963L227.095 334.88C232.67 333.385 240.636 331.05 240.636 331.05Z" fill="#FFCEA9"/>
<path d="M249.247 364.469C247.581 368.241 246.224 371.254 245.042 373.669C244.115 375.59 243.296 377.119 242.543 378.419C240.502 379.115 238.388 379.642 236.23 379.994C231.179 380.845 223.871 381.213 217.194 378.269C216.67 378.028 216.16 377.786 215.636 377.51C215.636 377.51 215.636 377.441 215.636 377.315C215.569 376.682 215.34 374.624 215.152 372.289C214.964 370.265 214.816 368.046 214.776 366.413C203.72 358.133 213.178 347.932 222.581 339.963C223.703 339.877 224.831 339.877 225.953 339.963C225.953 339.963 217.57 348.438 223.401 353.257C235.867 350.037 238.352 345.207 242.342 343.321C245.767 343.781 249.703 345.356 250.254 346.966C250.859 348.841 252.216 357.719 249.247 364.469Z" fill="#F4F4F4"/>
<path d="M217.745 318.055C218.981 311.316 224.663 306.222 232.791 306.636C236.056 306.789 239.182 307.816 241.727 309.573C244.273 311.33 246.109 313.727 246.977 316.426C247.844 319.125 247.698 321.989 246.56 324.614C245.423 327.238 243.35 329.49 240.636 331.05C240.352 332.069 239.933 333.057 239.386 333.994C236.498 336.858 228.868 338.675 226.342 338.709C224.166 338.709 222.312 336.984 220.244 334.109C215.999 328.06 217.073 321.379 217.745 318.055Z" fill="#FFCEA9"/>
<path d="M235.303 306.762C240.999 307.705 245.673 309.062 247.218 313.869C248.28 317.158 249.663 323.449 248.347 326.094L247.527 328.003L240.636 331.05C240.636 331.05 237.412 328.75 238.419 322.023C238.379 321.115 238.044 320.235 237.452 319.481C237.022 318.845 236.701 318.16 236.498 317.446C235.686 315.624 234.083 314.141 232.025 313.306C226.893 310.833 219.384 312.972 218.336 313.858C219.779 311.185 222.255 309.02 225.345 307.727C228.436 306.435 231.953 306.094 235.303 306.762Z" fill="#3A2C6D"/>
<path d="M250.63 392.322C251.974 385.491 254.298 381.064 253.183 377.372C250.714 369.768 247.468 362.364 243.484 355.246C240.972 350.991 241.737 348.047 244.344 346.368C247.286 344.494 250.093 345.31 252.726 350.014C256.058 355.936 259.806 362.008 261.633 370.817C262.519 375.095 262.976 379.247 261.377 388.067C260.249 394.208 257.979 397.658 255.278 403.42C254.54 404.892 249.542 398.107 250.63 392.322Z" fill="#FFCEA9"/>
<path d="M245.647 519.662C242.758 521.663 238.285 520.271 238.07 520.455C235.141 522.974 230.762 525.17 227.511 527.355C225.711 528.574 222.917 530.184 223.481 532.507C224.381 536.67 232.159 535.394 235.088 534.117C238.016 532.841 240.461 530.736 243.148 529.264C245.123 528.218 247.071 527.666 247.379 525.527C247.554 524.239 246.157 519.604 245.647 519.662Z" fill="#2B303F"/>
<path d="M247.326 524.664C246.95 526.711 245.029 527.275 243.067 528.321C240.246 529.828 237.761 531.99 234.833 533.255C232.146 534.405 225.362 535.555 223.468 532.634C224.502 536.636 232.132 535.382 235.034 534.117C237.936 532.852 240.408 530.736 243.094 529.264C245.069 528.218 247.017 527.666 247.326 525.527C247.363 525.24 247.363 524.951 247.326 524.664Z" fill="#3A4151"/>
<path d="M225.429 516.2C222.742 518.04 218.806 517.005 218.618 517.178C215.932 519.478 211.901 521.456 208.959 523.468C207.321 524.618 204.755 526.056 205.225 528.183C206.044 531.99 213.164 530.828 215.851 529.655C218.538 528.482 220.727 526.562 223.28 525.216C225.08 524.25 226.866 523.756 227.149 521.766C227.323 520.605 225.899 516.154 225.429 516.2Z" fill="#2B303F"/>
<path d="M227.122 520.95C226.772 522.836 225.013 523.353 223.212 524.308C220.633 525.676 218.349 527.654 215.663 528.827C213.191 529.897 206.998 530.966 205.252 528.252C206.205 531.921 213.191 530.771 215.851 529.609C218.511 528.448 220.727 526.516 223.28 525.17C225.08 524.204 226.866 523.71 227.148 521.72C227.169 521.464 227.16 521.205 227.122 520.95Z" fill="#3A4151"/>
<path d="M209.9 401.465C211.163 392.955 214.83 380.604 214.83 380.604C218.298 381.973 222.043 382.755 225.859 382.904C232.267 383.18 242.53 381.512 242.53 381.512C244.322 384.192 246.281 386.788 248.4 389.286C251.262 392.736 256.837 400.154 255.493 413.183C254.607 421.705 249.032 457.861 249.032 457.861C251.197 463.944 252.35 470.259 252.457 476.617C252.457 481.884 250.778 490.82 248.965 499.088L245.647 519.616C245.647 519.616 241.213 522.353 238.07 520.409L238.46 500.33C238.083 495.408 237.506 488.163 237.116 483.529C236.525 475.985 234.94 463.979 234.43 461.012C233.919 458.045 232.858 452.801 232.32 446.936C231.783 441.071 229.217 411.286 229.217 411.286L228.855 416.863C228.855 416.863 228.519 425.914 227.001 437.08C225.483 448.247 224.945 453.18 224.945 453.18C226.378 455.433 227.38 457.867 227.914 460.391C228.183 462.806 231.407 481.896 229.486 491.613L225.604 516.35C224.619 516.933 223.487 517.307 222.3 517.441C221.114 517.575 219.907 517.465 218.779 517.121L216.455 492.234C214.897 482.77 211.592 462.691 211.082 460.092C209.974 454.831 209.314 449.508 209.107 444.164C208.355 433.412 208.624 409.963 209.9 401.465Z" fill="#FFCEA9"/>
<path d="M54.7015 264.396C54.3119 267.34 54.0433 269.1 54.0433 269.1C51.2545 271.384 47.9352 273.14 44.3015 274.253C40.6678 275.367 36.801 275.813 32.9525 275.563C20.4862 275.057 9.63183 269.1 9.63183 269.1L10.4378 264.948L12.2782 255.61C-1.78672 211.91 11.7812 194.936 11.7812 194.936L19.1965 182.194L20.6877 179.653L21.8564 179.871C43.7531 182.539 48.4415 178.721 48.643 178.491C48.643 178.491 49.0057 179.423 49.5968 181.182C52.7785 190.679 55.2287 200.345 56.9315 210.116C59.5376 224.848 56.2061 253.218 54.7015 264.396Z" fill="#8C50FF"/>
<path d="M398.01 245.421C398.723 240.192 399.995 235.03 401.812 230C401.812 230 400.683 216.683 400.106 204.056C399.461 189.727 393.658 177.111 398.239 165.68L449.891 175.513C449.891 175.513 446.761 232.645 446.076 239.556C445.694 244.94 444.918 250.298 443.752 255.599C441.401 266.696 437.572 293.077 437.572 293.077C432.105 295.791 424.931 294.227 424.931 294.227C424.931 294.227 425.334 260.877 425.683 252.827C426.113 243.064 426.463 243.811 426.463 243.811L424.756 219.65L423.628 207.552C423.628 207.552 422.204 216.43 421.277 224.353C420.471 231.253 418.51 237.521 416.334 250.378C414.453 261.544 411.39 283.969 411.39 283.969C405.923 286.683 398.507 284.429 398.507 284.429C398.507 284.429 396.533 255.104 398.01 245.421Z" fill="#916F5D"/>
<path d="M250.63 451.536L253.156 464.508C253.156 464.508 227.552 478.572 210.424 464.508C210.424 464.508 204.486 425.661 207.643 407.732C209.39 397.619 211.985 387.627 215.408 377.832C215.515 377.545 215.596 377.361 215.609 377.303L242.476 378.453L243.014 379.385L251.074 393.185C251.074 393.185 264.145 409.48 250.63 451.536Z" fill="#DD7A7A"/>
<path d="M257.925 358.213C257.925 358.213 251.987 363.273 244.935 362.652L241.563 352.797C241.563 352.797 239.36 347.622 244.491 345.379C249.623 343.137 254.943 348.105 257.925 358.213Z" fill="#EDEDED"/>
<path d="M222.541 339.997C222.541 339.997 215.743 338.226 208.516 351.118L211.203 352.509C211.203 352.509 218.336 343.309 222.541 339.997Z" fill="#EDEDED"/>
<path d="M242.543 378.419L243.081 379.35C240.815 379.689 238.527 379.904 236.23 379.994C235.33 379.994 234.43 379.994 233.543 379.994C228.026 379.969 222.532 379.375 217.181 378.223L215.394 377.798C215.502 377.51 215.582 377.326 215.596 377.269C215.529 376.636 215.3 374.578 215.112 372.243C218.954 373.324 231.81 376.372 245.029 373.623C244.115 375.59 243.296 377.131 242.543 378.419Z" fill="#C1C4D3"/>
<path d="M310.705 106.478C309.779 108.376 308.959 109.928 308.193 111.216C308.193 111.216 291.993 117.173 278.922 110.239C278.922 110.239 278.64 107.674 278.357 104.696C283.341 106.191 296.748 109.491 310.705 106.478Z" fill="#E9EAF4"/>
<path d="M471.425 58.8685C471.237 60.858 471.197 62.1575 471.197 62.1575C471.197 62.1575 465.514 62.744 463.674 60.5245C463.842 59.3552 464.13 58.2008 464.533 57.0745C465.488 57.7465 466.588 58.2509 467.771 58.5587C468.953 58.8666 470.195 58.9718 471.425 58.8685Z" fill="#D5D7E2"/>
<path d="M405.076 555.3L404.727 548.193C408.116 549.49 411.948 549.658 415.474 548.665L413.499 556.255C412.48 556.964 411.181 557.31 409.872 557.221C408.066 557.061 406.377 556.385 405.076 555.3Z" fill="#F4F6F9"/>
<path d="M441.441 539.879L441.092 532.783C442.484 533.56 444.075 534.036 445.728 534.172C447.382 534.308 449.05 534.1 450.589 533.565L449.085 540.465C449.085 540.465 448.816 541.408 446.264 541.408C444.514 541.32 442.835 540.788 441.441 539.879Z" fill="#F4F6F9"/>
<path d="M116.456 172.649C114.682 175.697 109.873 178.48 103.6 180.078C101.425 180.665 99.1624 180.975 96.883 180.998C93.543 180.788 90.3141 179.88 87.4795 178.353C90.7036 176.985 93.7127 175.812 94.0888 175.662C95.1769 176.283 97.5009 177.042 101.84 175.938C106.864 174.639 110.827 172.81 110.8 169.234V169.153C111.136 169.153 113.715 168.785 116.657 168.578C116.973 169.228 117.119 169.93 117.084 170.633C117.049 171.336 116.835 172.025 116.456 172.649Z" fill="#D5D7E2"/>
<path d="M91.7244 191.107C91.1199 193.832 90.3811 197.236 89.6825 199.87C89.1183 202.308 88.675 204.067 88.675 204.067C88.675 204.067 86.2435 206.85 79.4462 205.436C75.5865 204.739 72.1841 202.805 69.9352 200.031C69.9352 200.031 70.3785 198.524 71.1173 196.132C71.8562 193.74 72.9443 190.382 74.1936 186.645C76.7057 179.285 80.7089 177.088 86.3913 177.813C93.4036 178.698 92.9066 185.851 91.7244 191.107Z" fill="#434B5B"/>
<path d="M89.6826 199.87C89.1183 202.308 88.675 204.067 88.675 204.067C88.675 204.067 86.2436 206.85 79.4462 205.436C75.5865 204.739 72.1841 202.805 69.9352 200.031C69.9352 200.031 70.3785 198.524 71.1173 196.132C73.6669 198.422 76.9784 199.984 80.6014 200.606C83.6411 201.217 86.8309 200.959 89.6826 199.87Z" fill="#D5D7E2"/>
<path d="M17.4637 326.393C18.9574 327.308 20.7216 327.846 22.555 327.945C23.5532 328.012 24.5445 327.758 25.3358 327.232L25.2014 320.056C23.8339 320.5 22.3782 320.711 20.9161 320.677C19.3898 320.754 17.8624 320.542 16.4427 320.056L17.4637 326.393Z" fill="#F4F6F9"/>
<path d="M38.2454 323.081C39.5667 323.824 41.1111 324.223 42.692 324.231C43.6116 324.294 44.5352 324.16 45.3787 323.84L46.0369 316.79C44.6324 317.235 43.1406 317.442 41.6441 317.4C40.1307 317.481 38.6153 317.269 37.2111 316.779L38.2454 323.081Z" fill="#F4F6F9"/>
<path d="M345.243 347.484C345.052 348.634 344.596 349.741 343.9 350.738C333.677 352.854 325.093 345.506 325.093 345.506C325.093 345.506 325.523 344.126 326.302 342.056C332.696 346.794 339.091 348.622 345.243 347.484Z" fill="#C1C4D3"/>
<path d="M398.36 334.178C396.479 336.478 390.877 335.834 390.877 335.834C390.877 335.834 390.877 334.972 390.716 333.592C395.028 333.73 396.815 332.695 397.768 331.591C398.04 332.44 398.238 333.305 398.36 334.178Z" fill="#C1C4D3"/>
<path d="M49.6102 181.171C44.6277 183.041 39.2237 183.944 33.7855 183.816C28.8614 183.813 23.9582 183.268 19.1966 182.194L20.6877 179.653C20.1772 178.79 19.6399 177.824 19.0757 176.709C26.4642 178.733 41.1605 180.009 48.9385 175.559C48.8042 176.95 48.6833 178.066 48.6296 178.526C48.6296 178.526 49.0191 179.4 49.6102 181.171Z" fill="#DD7A7A"/>
</g>
<defs>
<clipPath id="clip0">
<rect width="561" height="575" fill="white"/>
</clipPath>
</defs>
</svg>
